<svg id="Слой_1" data-name="Слой 1" xmlns="http://www.w3.org/2000/svg" xmlns:xlink="http://www.w3.org/1999/xlink" viewBox="0 0 266.88 394"><defs><style>.cls-1{fill:none;}.cls-2{clip-path:url(#clip-path);}</style><clipPath id="clip-path"><rect class="cls-1" width="266.88" height="394"/></clipPath></defs><title>icon_locationМонтажная область 1</title><g class="cls-2"><path d="M133.47,0C59.87,0,0,59.87,0,133.46,0,163,17.41,208,54.79,275c25.51,45.71,50.9,84.32,52,85.95l18.36,27.82a10,10,0,0,0,16.69,0L160.17,361c1.06-1.61,26.27-39.88,52-85.95,37.38-67,54.79-112,54.79-141.54C266.93,59.87,207.06,0,133.47,0Zm61.21,265.26c-25.35,45.42-50.16,83.09-51.2,84.68l-10,15.17-10-15.16c-1.05-1.59-26.05-39.61-51.21-84.68C37.58,203.12,20,158.78,20,133.46a113.47,113.47,0,0,1,226.93,0c0,25.32-17.58,69.66-52.26,131.8Zm0,0"/></g><path d="M133.47,58.63a74,74,0,1,0,74,74,74.08,74.08,0,0,0-74-74Zm0,128a54,54,0,1,1,54-54,54.06,54.06,0,0,1-54,54Zm0,0"/></svg>