<svg id="Слой_1" data-name="Слой 1" xmlns="http://www.w3.org/2000/svg" xmlns:xlink="http://www.w3.org/1999/xlink" viewBox="0 0 328.8 387.84"><defs><style>.cls-1{fill:none;}.cls-2{clip-path:url(#clip-path);}</style><clipPath id="clip-path"><rect class="cls-1" width="328.8" height="387.84"/></clipPath></defs><title>icon_userМонтажная область 1</title><g class="cls-2"><path d="M162.9,208.72h2.56c23.44-.4,42.4-8.64,56.4-24.4C252.66,149.6,247.54,90.08,247,84.4c-2-42.64-22.16-63-38.8-72.56-12.4-7.12-26.88-11-43-11.28h-1.36c-8.88,0-26.32,1.44-43,11S83.46,41.44,81.46,84.4c-.56,5.68-5.68,65.2,25.12,99.92,13.92,15.76,32.88,24,56.32,24.4ZM102.82,86.4c0-.24.08-.48.08-.64,2.64-57.36,43.36-63.52,60.8-63.52h1c21.6.48,58.32,9.28,60.8,63.52a1.52,1.52,0,0,0,.08.64c.08.56,5.68,55-19.76,83.6-10.08,11.36-23.52,17-41.2,17.12h-.8c-17.6-.16-31.12-5.76-41.12-17.12-25.36-28.48-19.92-83.12-19.84-83.6Zm0,0"/><path d="M328.58,307.44v-.24c0-.64-.08-1.28-.08-2-.48-15.84-1.52-52.88-36.24-64.72l-.8-.24c-36.08-9.2-66.08-30-66.4-30.24a10.8,10.8,0,0,0-12.4,17.68c1.36,1,33.2,23.12,73,33.36,18.64,6.64,20.72,26.56,21.28,44.8a15.69,15.69,0,0,0,.08,2c.08,7.2-.4,18.32-1.68,24.72-13,7.36-63.76,32.8-141,32.8-77,0-128.08-25.52-141.12-32.88-1.28-6.4-1.84-17.52-1.68-24.72,0-.64.08-1.28.08-2,.56-18.24,2.64-38.16,21.28-44.8,39.84-10.24,71.68-32.48,73-33.36a10.8,10.8,0,1,0-12.4-17.68c-.32.24-30.16,21-66.4,30.24-.32.08-.56.16-.8.24C1.62,252.32.58,289.36.1,305.12a16.23,16.23,0,0,1-.08,2v.24c-.08,4.16-.16,25.52,4.08,36.24a10.24,10.24,0,0,0,4.16,5c2.4,1.6,59.92,38.24,156.16,38.24s153.76-36.72,156.16-38.24a10.69,10.69,0,0,0,4.16-5c4-10.64,3.92-32,3.84-36.16Zm0,0"/></g></svg>