<svg id="Слой_1" data-name="Слой 1" xmlns="http://www.w3.org/2000/svg" xmlns:xlink="http://www.w3.org/1999/xlink" viewBox="0 0 405.8 387.84"><defs><style>.cls-1{fill:none;}.cls-2{clip-path:url(#clip-path);}.cls-3{clip-path:url(#clip-path-2);}</style><clipPath id="clip-path"><rect class="cls-1" x="77" width="328.8" height="387.84"/></clipPath><clipPath id="clip-path-2"><rect class="cls-1" x="16.14" y="25.68" width="230.26" height="271.61"/></clipPath></defs><title>icon_roleМонтажная область 1</title><g class="cls-2"><path d="M239.9,208.72h2.56c23.44-.4,42.4-8.64,56.4-24.4C329.66,149.6,324.54,90.08,324,84.4c-2-42.64-22.16-63-38.8-72.56-12.4-7.12-26.88-11-43-11.28h-1.36c-8.88,0-26.32,1.44-43,11S160.46,41.44,158.46,84.4c-.56,5.68-5.68,65.2,25.12,99.92,13.92,15.76,32.88,24,56.32,24.4ZM179.82,86.4c0-.24.08-.48.08-.64,2.64-57.36,43.36-63.52,60.8-63.52h1c21.6.48,58.32,9.28,60.8,63.52a1.52,1.52,0,0,0,.08.64c.08.56,5.68,55-19.76,83.6-10.08,11.36-23.52,17-41.2,17.12h-.8c-17.6-.16-31.12-5.76-41.12-17.12-25.36-28.48-19.92-83.12-19.84-83.6Zm0,0"/><path d="M405.58,307.44v-.24c0-.64-.08-1.28-.08-2-.48-15.84-1.52-52.88-36.24-64.72l-.8-.24c-36.08-9.2-66.08-30-66.4-30.24a10.8,10.8,0,0,0-12.4,17.68c1.36,1,33.2,23.12,73,33.36,18.64,6.64,20.72,26.56,21.28,44.8a15.69,15.69,0,0,0,.08,2c.08,7.2-.4,18.32-1.68,24.72-13,7.36-63.76,32.8-141,32.8-77,0-128.08-25.52-141.12-32.88-1.28-6.4-1.84-17.52-1.68-24.72,0-.64.08-1.28.08-2,.56-18.24,2.64-38.16,21.28-44.8,39.84-10.24,71.68-32.48,73-33.36a10.8,10.8,0,1,0-12.4-17.68c-.32.24-30.16,21-66.4,30.24-.32.08-.56.16-.8.24-34.72,11.92-35.76,49-36.24,64.72a16.23,16.23,0,0,1-.08,2v.24c-.08,4.16-.16,25.52,4.08,36.24a10.24,10.24,0,0,0,4.16,5c2.4,1.6,59.92,38.24,156.16,38.24s153.76-36.72,156.16-38.24a10.69,10.69,0,0,0,4.16-5c4-10.64,3.92-32,3.84-36.16Zm0,0"/></g><g class="cls-3"><path d="M181.7,54.77a51.62,51.62,0,0,0-9.19-12.68C170.25,47.7,169,54,166.9,59.43a49.18,49.18,0,0,1,6.43,18.92C175,70,178.84,62.75,181.7,54.77Z"/><path d="M173,114.46c-1.44,8.74-4.2,18.06-9.3,25.73a5,5,0,0,1,1.18,2.06c1.45,4.74,2.52,10,4.63,14.61q1-1,2-2.1a57.85,57.85,0,0,0,7.62-11.06A124.67,124.67,0,0,1,173,114.46Z"/><path d="M157.23,164.82a6.19,6.19,0,0,1-.63-1.16,110.52,110.52,0,0,1-4.17-11.54,4.32,4.32,0,0,1-.68-.43c-5.67,3.28-12.39,5-20.35,5h-.56c-12.32-.11-21.79-4-28.8-12C84.28,124.79,88.09,86.52,88.14,86.19c0-.17.06-.34.06-.45,1.85-40.17,30.37-44.48,42.58-44.48h.67a50.93,50.93,0,0,1,18.39,3.67c.49-.32.69-.61,1.21-1.65.82-1.65,1.52-3.26,2.47-4.85,1.21-2,2.42-4,3.76-5.93a3.92,3.92,0,0,1,0-.58v-.21l0-.1a64,64,0,0,0-25.45-5.52h-1c-6.22,0-18.43,1-30.14,7.68s-26.11,21-27.51,51c-.39,4-4,45.66,17.59,70,9.75,11,23,16.81,39.44,17.09H132a56.31,56.31,0,0,0,25.3-6C157.29,165.5,157.26,165.16,157.23,164.82Z"/><path d="M83.59,276.69a43.74,43.74,0,0,0-2.92,14,5.65,5.65,0,0,1-.08.84c3.11.64,6.32,1.25,9.66,1.8-1.78-4.71-1.14-10.88,3.16-13.83l-1.15-1.15Q87.78,277.57,83.59,276.69Z"/><path d="M99.18,174.54a7.56,7.56,0,0,0-10.53-1.85c-.22.17-21.12,14.73-46.5,21.18-.22.05-.39.11-.56.17-24.31,8.35-25,34.29-25.38,45.32a11.36,11.36,0,0,1-.06,1.4v.17C16.1,243.84,16,258.8,19,266.3a7.17,7.17,0,0,0,2.91,3.53c1.05.7,17.33,11.06,45.94,18.68a65.87,65.87,0,0,1,1.85-15.2c-19.43-5.41-32.34-12-37.32-14.8a96.18,96.18,0,0,1-1.18-17.31c0-.45.05-.89.05-1.4.39-12.77,1.85-26.72,14.9-31.37,27.9-7.17,50.2-22.74,51.15-23.36A7.55,7.55,0,0,0,99.18,174.54Z"/><path d="M217.7,201c.83.53,1.65,1.07,2.45,1.65a46.57,46.57,0,0,1,3.92,3.15,45.27,45.27,0,0,1-1.36-11c-.62-.25-1.25-.49-1.91-.71l-.56-.17c-3.64-.93-7.18-2-10.59-3.22A43.65,43.65,0,0,1,217.7,201Z"/><path d="M190.55,184.27a16.46,16.46,0,0,1,5.73,1.28c.14,0,.29-.06.43-.09-3.2-1.46-6.15-2.93-8.81-4.33l.49.8C189.1,182.76,189.82,183.52,190.55,184.27Z"/></g></svg>