<svg id="Слой_1" data-name="Слой 1" xmlns="http://www.w3.org/2000/svg" viewBox="0 0 308.4 388.4"><title>icon_Монтажная область 1</title><path d="M297.68,101H61.12a39.84,39.84,0,1,1,0-79.68H297.76a10.64,10.64,0,0,0,0-21.28H61.12A61.22,61.22,0,0,0,0,61.12V327.28A61.22,61.22,0,0,0,61.12,388.4H297.76a10.63,10.63,0,0,0,10.64-10.64V111.6A10.75,10.75,0,0,0,297.68,101ZM287,367.12H61.12a39.89,39.89,0,0,1-39.84-39.84V107.52a61,61,0,0,0,39.84,14.8H287Zm0,0"/><path d="M64.48,51.44a10.64,10.64,0,1,0,0,21.28H264.32a10.64,10.64,0,1,0,0-21.28Zm0,0"/><path d="M101.92,320.56a11.31,11.31,0,0,0,3.6.64,10.57,10.57,0,0,0,10-7l13-36.24H178.4a6.72,6.72,0,0,0,1.28-.08l13,36.32a10.65,10.65,0,0,0,10,7,11.31,11.31,0,0,0,3.6-.64,10.62,10.62,0,0,0,6.4-13.6L164.16,171a5,5,0,0,0-.4-1l-.24-.48-.24-.48a3.15,3.15,0,0,1-.32-.56c-.08-.08-.16-.24-.24-.32a2,2,0,0,0-.4-.48c-.08-.08-.16-.24-.32-.32s-.24-.24-.4-.4l-.4-.4c-.08-.08-.24-.16-.32-.32s-.32-.24-.48-.4-.24-.16-.32-.24-.32-.24-.48-.32l-.48-.24-.48-.24a4.86,4.86,0,0,0-1-.4h-.08l-1-.24c-.16,0-.24-.08-.4-.08s-.4-.08-.64-.16a1,1,0,0,1-.48-.08c-.16,0-.4-.08-.56-.08h-1a1.32,1.32,0,0,0-.56.08,1,1,0,0,0-.48.08,1.82,1.82,0,0,0-.64.16c-.16,0-.24.08-.4.08-.32.08-.64.16-.88.24h-.08a4.83,4.83,0,0,0-1,.4l-.48.24-.48.24a3.3,3.3,0,0,1-.56.32c-.08.08-.24.16-.32.24s-.32.24-.48.4-.24.16-.32.32l-.8.8c-.08.08-.16.24-.32.32s-.24.32-.4.48-.16.24-.24.32-.24.32-.32.48l-.24.48-.24.48a4.77,4.77,0,0,0-.4,1L95.28,306.88a11,11,0,0,0,6.64,13.68Zm52.24-114.32,18,50.4H136.08Zm0,0"/></svg>