<svg id="Layer_1" data-name="Layer 1" xmlns="http://www.w3.org/2000/svg" viewBox="0 0 512 512"><title>icon_Artboard 1</title><path d="M360.51,341a15,15,0,0,0-15,15V467a15,15,0,0,1-15,15h-240a15,15,0,0,1-15-15V45a15,15,0,0,1,15-15h240a15,15,0,0,1,15,15V156a15,15,0,1,0,30,0V45a45.05,45.05,0,0,0-45-45h-240a45.05,45.05,0,0,0-45,45V467a45.05,45.05,0,0,0,45,45h240a45.05,45.05,0,0,0,45-45V356A15,15,0,0,0,360.51,341Z"/><path d="M460.15,243.74l-61.42-43.3A15,15,0,0,0,381.44,225l22.75,16H173a15,15,0,1,0,0,30H404.2l-22.75,16a15,15,0,0,0,17.29,24.52l61.42-43.3A15,15,0,0,0,460.15,243.74Z"/></svg>