<svg id="Layer_1" data-name="Layer 1" xmlns="http://www.w3.org/2000/svg" viewBox="0 0 512 512"><title>icon_Artboard 1</title><path d="M278.89,512H233.11a27,27,0,0,1-26.56-22.83c-1.44-9.61-2.82-19.5-4.11-29.38a2.9,2.9,0,0,0-2.07-2.47A207.87,207.87,0,0,1,153,437.69a2.92,2.92,0,0,0-3.22.27c-7.9,6.08-15.87,12.09-23.69,17.88a27,27,0,0,1-34.92-2.64L58.8,420.84a27,27,0,0,1-2.64-34.92c5.79-7.83,11.8-15.8,17.88-23.69a2.92,2.92,0,0,0,.27-3.22,207.86,207.86,0,0,1-19.64-47.39,2.9,2.9,0,0,0-2.47-2.07c-9.86-1.29-19.74-2.67-29.38-4.11A27,27,0,0,1,0,278.89V233.11a27,27,0,0,1,22.83-26.56c9.63-1.44,19.52-2.82,29.38-4.11a2.9,2.9,0,0,0,2.47-2.06A207.85,207.85,0,0,1,74.31,153a2.92,2.92,0,0,0-.27-3.22C68,141.9,62,133.93,56.16,126.08A27,27,0,0,1,58.8,91.16L91.16,58.8a27,27,0,0,1,34.92-2.64C133.9,61.94,141.87,68,149.77,74a2.93,2.93,0,0,0,3.23.27,207.83,207.83,0,0,1,47.39-19.64,2.9,2.9,0,0,0,2.07-2.47c1.29-9.88,2.67-19.77,4.11-29.38A27,27,0,0,1,233.11,0h45.77a27,27,0,0,1,26.56,22.82c1.44,9.61,2.82,19.5,4.11,29.38a2.9,2.9,0,0,0,2.07,2.47A207.86,207.86,0,0,1,359,74.31a2.92,2.92,0,0,0,3.22-.27c7.9-6.08,15.87-12.09,23.69-17.88a27,27,0,0,1,34.92,2.64L453.2,91.16a27,27,0,0,1,2.64,34.92C450,133.91,444,141.88,438,149.77a2.92,2.92,0,0,0-.27,3.22,207.84,207.84,0,0,1,19.64,47.39,2.9,2.9,0,0,0,2.47,2.06c9.86,1.29,19.75,2.67,29.38,4.11A27,27,0,0,1,512,233.11v45.77a27,27,0,0,1-22.83,26.56c-9.63,1.44-19.51,2.82-29.38,4.11a2.91,2.91,0,0,0-2.47,2.07A207.87,207.87,0,0,1,437.69,359a2.92,2.92,0,0,0,.27,3.22c6.07,7.89,12.08,15.86,17.88,23.69a27,27,0,0,1-2.64,34.92L420.83,453.2a27,27,0,0,1-34.92,2.64c-7.82-5.78-15.79-11.8-23.69-17.88a2.93,2.93,0,0,0-3.22-.27,207.86,207.86,0,0,1-47.39,19.64,2.91,2.91,0,0,0-2.07,2.47c-1.29,9.87-2.67,19.75-4.11,29.38A27,27,0,0,1,278.89,512ZM151.6,413.41a26.7,26.7,0,0,1,13.2,3.49,183.89,183.89,0,0,0,41.93,17.38,26.76,26.76,0,0,1,19.42,22.43c1.27,9.73,2.63,19.47,4,28.93a2.93,2.93,0,0,0,2.91,2.45h45.77a2.93,2.93,0,0,0,2.91-2.45c1.42-9.48,2.78-19.21,4-28.93a26.77,26.77,0,0,1,19.42-22.43A184,184,0,0,0,347.2,416.9,26.77,26.77,0,0,1,376.81,419c7.78,6,15.63,11.91,23.33,17.6a2.94,2.94,0,0,0,3.79-.32l32.37-32.37a2.94,2.94,0,0,0,.32-3.79c-5.7-7.71-11.63-15.56-17.6-23.33a26.78,26.78,0,0,1-2.11-29.61,183.93,183.93,0,0,0,17.38-41.93,26.76,26.76,0,0,1,22.43-19.42c9.72-1.27,19.45-2.63,28.93-4a2.94,2.94,0,0,0,2.45-2.91V233.11a2.94,2.94,0,0,0-2.45-2.91c-9.48-1.42-19.22-2.78-28.93-4a26.76,26.76,0,0,1-22.42-19.42A183.9,183.9,0,0,0,416.9,164.8,26.78,26.78,0,0,1,419,135.19c6-7.77,11.9-15.62,17.6-23.33a2.94,2.94,0,0,0-.32-3.79L403.93,75.7a2.93,2.93,0,0,0-3.79-.32C392.44,81.07,384.59,87,376.81,93A26.78,26.78,0,0,1,347.2,95.1a184,184,0,0,0-41.93-17.38,26.76,26.76,0,0,1-19.42-22.43c-1.27-9.73-2.63-19.47-4-28.93a2.93,2.93,0,0,0-2.91-2.45H233.11a2.93,2.93,0,0,0-2.91,2.45c-1.42,9.47-2.78,19.2-4,28.93a26.76,26.76,0,0,1-19.42,22.43A183.92,183.92,0,0,0,164.8,95.1,26.78,26.78,0,0,1,135.19,93c-7.78-6-15.63-11.91-23.33-17.61a2.93,2.93,0,0,0-3.79.32L75.7,108.07a2.94,2.94,0,0,0-.32,3.79C81.09,119.59,87,127.44,93,135.19A26.78,26.78,0,0,1,95.1,164.8a183.9,183.9,0,0,0-17.38,41.93,26.76,26.76,0,0,1-22.43,19.42c-9.71,1.27-19.44,2.63-28.93,4a2.94,2.94,0,0,0-2.45,2.91v45.77a2.94,2.94,0,0,0,2.45,2.91c9.49,1.42,19.22,2.78,28.93,4a26.76,26.76,0,0,1,22.42,19.42A183.93,183.93,0,0,0,95.1,347.2,26.78,26.78,0,0,1,93,376.81c-6,7.77-11.9,15.62-17.6,23.33a2.93,2.93,0,0,0,.32,3.79l32.37,32.37a2.93,2.93,0,0,0,3.79.32c7.7-5.7,15.55-11.62,23.33-17.6A26.87,26.87,0,0,1,151.6,413.41Z"/><path d="M256,367.13A111.13,111.13,0,1,1,367.13,256,111.26,111.26,0,0,1,256,367.13Zm0-198.36A87.23,87.23,0,1,0,343.23,256,87.32,87.32,0,0,0,256,168.77Z"/></svg>