<svg id="Layer_1" data-name="Layer 1" xmlns="http://www.w3.org/2000/svg" viewBox="0 0 512 512"><title>icon_Artboard 1</title><polygon points="91.06 90.86 79.02 80.3 29.79 136.38 11.41 117.54 -0.03 128.72 30.42 159.92 91.06 90.86"/><rect x="156.22" y="89.73" width="189.76" height="16"/><rect x="156.22" y="138.35" width="355.84" height="16"/><polygon points="91.06 226.75 79.02 216.19 29.79 272.29 11.41 253.42 -0.03 264.61 30.42 295.81 91.06 226.75"/><rect x="156.22" y="225.6" width="189.76" height="16"/><rect x="156.22" y="274.24" width="355.84" height="16"/><polygon points="91.06 362.64 79.02 352.08 29.79 408.18 11.41 389.31 -0.03 400.5 30.42 431.7 91.06 362.64"/><rect x="156.22" y="361.52" width="189.76" height="16"/><rect x="156.22" y="410.14" width="355.84" height="16"/></svg>