<svg xmlns="http://www.w3.org/2000/svg" viewBox="0 0 381 407"><title>icon_Монтажная область 1</title><g id="Слой_1" data-name="Слой 1"><path d="M369.93,158.24a26.21,26.21,0,0,0,5.3-6.84c1.59-3.09.13-5.21-3.33-5.27-4.16-.06-8.33.21-12.5.32-.63,0-1.27,0-2.08,0,1.1-1.15,2-2.11,2.92-3a35.11,35.11,0,0,0,8-11.35,42.51,42.51,0,0,0,2-7.19c.29-1.36-.43-2.31-2-2.17-2.69.24-5.39.44-8.07.78a43.58,43.58,0,0,0-4.35,1c2-3,4-5.51,5.61-8.28,3.85-6.84,4.57-13.94.93-21.13-1-2.05-1.56-2.05-3.2-.46l-19.62,19.09c-.53.52-1.11,1-1.66,1.49,3.31-6,6.81-11.81,10.6-17.38,5.28-7.75,6.5-16.17,4.46-25.11a20.58,20.58,0,0,0-3-7c-2-3-4.93-2.51-6.71.56-6.31,10.9-12.51,21.87-19.08,32.61-3.14,5.14-7,9.83-10.49,14.61l-3.24-2.47c-2.25,9.63-9,15.53-15.25,22l-2.28-4.77c-4.14,7.16-10,12.25-15.61,17.53a138.23,138.23,0,0,0-10.08,10,19.61,19.61,0,0,0-4.24,7.5c-1.62,6.21,0,11.63,5.25,15.81,3.81,3,4.07,7.73.94,11.39A19.24,19.24,0,0,1,258.42,197a14.71,14.71,0,0,1-2,.14V170.65H239l3.94-7.36c-9.76,3.18-16.58-.88-17.49-10.74-1-11.32,4.15-20,12.45-27.14a1.59,1.59,0,0,1,1.26-.13,9,9,0,0,0,7.52-1.38,4.18,4.18,0,0,1,1.61-.81,18.56,18.56,0,0,1,12,2.79c2.9,1.84,3.8,4.58,3.83,8,2.64-1.3,3.32-3.34,3.52-5.76.21-2.59-1.62-4-3.06-5.8a18.29,18.29,0,0,1,5.05,2.4,19.3,19.3,0,0,0,8.53,3.69c7.2,1.08,14.21-5.28,13.21-12.08-1,.9-2,1.74-3,2.66a9.94,9.94,0,0,1-10.22,2.5c-1.4-.38-2.74-1-4.11-1.47-3.67-1.26-7.31-2.65-11-3.7-1.71-.48-3.62-.27-5.66-.38A19.5,19.5,0,0,1,279,117.58a11.24,11.24,0,0,0,4.58-12.45A11.64,11.64,0,0,0,273.37,96c-1.11-.12-2.23-.1-3.33-.22-.44,0-1.21-.28-1.23-.49-.24-2.63-2.12-3.12-4.22-3.24l-.34-3.26c1,0,1.94.05,2.83,0A42.64,42.64,0,0,0,283.22,85a10.75,10.75,0,0,0,6-11.91c-.46-2.38-1.29-4.68-1.92-7a72.1,72.1,0,0,1-1.87-7.46c-.44-2.81.46-3.51,3.14-2.64A78.4,78.4,0,0,1,296.76,59a9,9,0,0,1,3.84,12.61c-1.39,2.41-2.84,4.79-4.18,7.23a7.8,7.8,0,0,0,1.45,9.66,23.8,23.8,0,0,1,2.73,3.66c2,3.09,1.68,6-.67,8.81-.69.82-1.3,1.71-2,2.57l.4.61c2.26-1,4.71-1.64,6.76-2.95,3.53-2.24,4.3-5.75,2.43-9.47-.69-1.36-1.68-2.56-2.39-3.91a15.66,15.66,0,0,1-.87-2.62,12.67,12.67,0,0,1,3.33,1.62c2.83,1.69,5.64,2.71,8.67.26,1.3-1.05,2.47-.49,2.73,1.13a29.32,29.32,0,0,1,0,4.31,10.11,10.11,0,0,0,4.69-6.69,5.42,5.42,0,0,0-2-5.59,4.52,4.52,0,0,0-5.28-.23,2.77,2.77,0,0,1-1.17.42c-.85,0-2.14.17-2.46-.28a3.24,3.24,0,0,1-.36-2.81A10.47,10.47,0,0,1,315.38,74c5.76-4.33,5.67-11.22-.46-15a29.89,29.89,0,0,0-7.29-3,13,13,0,0,1-6.7-4.3,63.66,63.66,0,0,0-6.27-6.7c-3.82-3.43-6.65-3.29-10.84-.29a50.38,50.38,0,0,1-7.64,4.54c-2.55,1.21-4,3.08-3.59,5.72a39.39,39.39,0,0,0,2.18,8c1,2.6,2.39,5,3.38,7.62a10.33,10.33,0,0,1,.42,7.54c-1.8,4.79-9.52,10.07-14.67,10-2.46-.06-3.15-1.22-2-3.47.31-.62.83-1.13,1.12-1.76,1.44-3.14,3.32-6.19,4.15-9.49a8.35,8.35,0,0,0-10-10.11c.12,5-1,9.76-1.73,14.52l-.65-.07,1.48-12.51-2.43-.4c-.37-1.06-1.23-2.29-.91-2.89,1-1.93.48-3.43-.46-5.09a8.07,8.07,0,0,1-.48-2.28l2,.27V50l-2,.16.24-1.95H247.8L248,50.2l-1.89-.11v4.59h2.21A32.37,32.37,0,0,0,247,58c-.24.91-.65,2.12-.26,2.77,1,1.73-.59,2.73-1,4.22L244.83,63c-1.08,0-2.06-.08-3,0-7.88.75-11,5.45-8.24,12.85,1,2.77,2.81,5.26,4.11,7.94a26.23,26.23,0,0,1,1.16,4c-1.23-.27-1.83-.36-2.41-.53-10.28-3.07-18.5-9.48-26.41-16.37a2.89,2.89,0,0,1-.63-1.85,14,14,0,0,1,2.33-8.47A103.35,103.35,0,0,0,217.38,50a17.34,17.34,0,0,0,1.35-10.42c-1.29-7.44-10.62-10.53-17.23-9.42l-.7,2.46-3.49-.16c-.59-1.41.88-3.46-1.91-3.56,1.86-2.39,2.24-4.66.9-7.2a40.66,40.66,0,0,1-1.79-4.83l3.44.47V9.74l-3.25.53.71-3.18h-6.56l.76,3.25-3.21-.66v7.66l3.36-.52a29.5,29.5,0,0,1-1.62,4.67c-1.24,2.25-1.37,4.32.15,6.44a9.75,9.75,0,0,1,.52.94l-1.71.46v2.87c-2.93,1.27-2.75-1-3.24-3.19a116.9,116.9,0,0,0-11.78,2.62,11.63,11.63,0,0,0-4.83,3.77c-2.63,3.18-2.37,7-1.53,10.76a41.26,41.26,0,0,0,6,13.22c1.9,3,3.56,6,3,9.72a3.51,3.51,0,0,1-.94,2.1c-5,3.8-9.9,7.68-15.08,11.18a37.63,37.63,0,0,1-13.48,5.54,47.05,47.05,0,0,1,1.57-4.61c1.29-2.76,2.93-5.38,4-8.21,1.2-3.08,1.46-6.33-1.09-9s-5.79-3.16-9.42-3.08c1.23,2,0,13.19-1.76,15.1l1.63-13.21c-.64,0-1.12,0-1.6,0s-.95-.11-1.39-.17c-.44-2.4-.44-2.39-2.95-2.16a2.28,2.28,0,0,1-1,0c-1.58-.65-2.48-.36-2.51,1.54a1.08,1.08,0,0,1-.7.79c-.29,0-.68-.37-.87-.68a5.45,5.45,0,0,1-.33-1.43,57.19,57.19,0,0,0-6.06,1c-5.09,1.36-7.4,4.89-5.88,9.93,1.06,3.54,3.15,6.76,4.65,10.17a26.82,26.82,0,0,1,1.07,4.1c-4.68.46-7.92-1.54-10.89-3.8-5.52-4.21-6.55-8.69-3.79-15.08.8-1.85,1.83-3.61,2.57-5.48a45.22,45.22,0,0,0,2.36-7.1c.78-3.74-.49-5.62-3.86-7.31a52,52,0,0,1-7.29-4.38c-4.33-3.15-7.21-3.19-11.13.49a79.53,79.53,0,0,0-5.82,6.27A12.81,12.81,0,0,1,78,55.95a31.13,31.13,0,0,0-6.42,2.42C64.53,62,64,69.36,70.36,74.11a6.33,6.33,0,0,1,2.28,2.34,5.54,5.54,0,0,1,0,3.64c-.15.39-2,.18-3.14.13a5.11,5.11,0,0,1-1.36-.5,4.8,4.8,0,0,0-6.43,4,8.59,8.59,0,0,0,4.55,8.49c0-1.08,0-2.11,0-3.14.12-2.4,1.29-3.07,3.22-1.68a5.88,5.88,0,0,0,6.83.27c1.5-.83,3-1.74,4.42-2.62l.45.26a20,20,0,0,1-1,2.54c-.72,1.35-1.63,2.59-2.34,3.95-1.76,3.36-1.11,6.47,1.73,9,2.18,1.94,4.86,2.53,7.94,3.11-.66-.92-1.12-1.59-1.6-2.25-3.47-4.75-3.41-5.92.13-11.4a10.51,10.51,0,0,1,1.37-1.58c3-3.09,3.48-6.21,1.37-10-1.36-2.43-2.82-4.8-4.19-7.23-2-3.48-1.05-9.36,2.36-11.29s7.39-3.09,11.17-4.41c1.41-.49,2.08.45,1.85,1.87a53.9,53.9,0,0,1-1,5.31c-.86,3.22-2,6.37-2.77,9.61-.92,4,0,7.8,3.53,10.18A43.09,43.09,0,0,0,109,87.44c3.42,1.23,7.09,1.77,10.81,2.64l-.44,2.15c-2.77-.36-3.95,1.14-4.36,3.39-8.81.36-13.17,3.34-14.64,9.87-1.11,4.92.91,10,4.84,12.08,5-4.82,15.3-5.63,20.9-1.8a60.12,60.12,0,0,0-7.44,1,66.79,66.79,0,0,0-7.42,2.72c-1.56.59-3.09,1.25-4.67,1.78a10.39,10.39,0,0,1-11-2.37c-.94-.86-1.9-1.69-3-2.68.31,6.83,4.12,11.39,10.17,12.15a14.89,14.89,0,0,0,11-3.14,57.06,57.06,0,0,1,5.61-3.26l.28.5c-3.08,3.85-3.08,3.85-3.06,5.79,0,2.74,1.23,4.55,3.56,5.42.35-5.32,1.62-7.16,6.6-9.25a16.48,16.48,0,0,1,4.19-1.23c2.59-.34,5.1-.53,7.55,1.23a6.79,6.79,0,0,0,6.75.72c.34-.14,1,.19,1.38.5A33.91,33.91,0,0,1,157.86,143c1.28,4.86,1.63,9.77-.47,14.54-2.59,5.89-8.38,8.25-14.36,5.95-.53-.2-1.07-.37-1.61-.56l-.38.39,4.14,7.47H127.53v26.34a18.55,18.55,0,0,1-13.11-7,7.09,7.09,0,0,1,0-9.53c1.07-1.28,2.52-2.26,3.46-3.61,1.24-1.79,2.64-3.69,3.12-5.74a15.72,15.72,0,0,0-3.87-15.06c-8.53-9.3-19.19-16.56-26.16-27.82l-2.22,4.81c-6.21-6.64-13-12.52-15.2-22.23L70.4,113.5c-3-4-6.3-7.85-8.89-12.11-7.13-11.7-14-23.58-20.91-35.4-1.5-2.56-3.84-3-6-.92a7.65,7.65,0,0,0-1.86,2.49C29,77,28.74,86.32,34,95.26c3.59,6.12,7.56,12,11.35,18,.34.55.62,1.13.93,1.7l-.76.67c-1.64-1.88-3.17-3.87-4.93-5.62-5.22-5.22-10.53-10.36-15.82-15.51C23.23,93,22.63,93.1,21.64,95A17.87,17.87,0,0,0,20,99,23,23,0,0,0,24.17,119c1.28,1.71,2.53,3.45,4.14,5.66-1.5-.37-2.41-.69-3.35-.81-3.09-.4-6.19-.75-9.3-1.07-1.56-.16-2.14.77-2.09,2.17a11.54,11.54,0,0,0,.37,2.26c1.72,7,5.87,12.52,10.93,17.46.55.54,1.09,1.1,2,2-1.4-.14-2.16-.27-2.91-.29-4-.13-8.06-.4-12.09-.29-3.31.09-4.62,2.23-3.28,5.27a19.33,19.33,0,0,0,3.23,4.81c4.26,4.85,10,7.48,15.77,9.89l4.46,1.84c-3.43,0-6.82-.17-10.19,0A59.67,59.67,0,0,0,12,169.32c-2.34.56-2.81,2.4-1.68,4.6a9.3,9.3,0,0,0,1,1.56c3.39,4.2,7.92,6.76,12.86,8.59,2.76,1,5.65,1.65,8.78,2.53-1,.07-1.66.13-2.35.17a30.64,30.64,0,0,0-15.57,4.79c-2.2,1.46-2.48,2.59-1.18,4.92a14.79,14.79,0,0,0,10.41,7.66c1.76.35,3.53.61,5.3.91l.38.48c-7.17,1-8.64,7.12-11.62,11.89,5.44,5.61,12,7.42,19.73,5.48-4.38,2.93-5.66,7-5.29,11.86.12,1.63.62,2.46,2.1,2.75,4.15.81,8.28,1.26,12.18-1a7.5,7.5,0,0,1,1.37-.49l.47.32c-6,3.7-4.31,9.33-4.18,14.5,2.3.46,4.47,1,6.67,1.32,4,.61,7.4-.23,10.13-3.48,5.82-6.94,11.73-13.8,17.63-20.67a13.17,13.17,0,0,1,1.64-1.39l.43.47c-.44.6-.85,1.21-1.31,1.79q-7.35,9.24-14.73,18.46c-1.48,1.85-2.39,4-1.58,6.2,1.15,3.17,2.7,6.19,4,9.15l6.91-1.21a8,8,0,0,0,6-4.26c4-7.26,8.17-14.41,12.3-21.59.37-.65.87-1.23,1.3-1.84l.55.33c-.3.64-.58,1.3-.91,1.93-3.23,6.16-6.43,12.34-9.71,18.48-1.59,3-1.51,5.7.69,8.31,1.65,2,3.27,3.95,4.82,5.83,2.16-.8,4.28-1.63,6.44-2.36a7.57,7.57,0,0,0,5.32-5.85c1.59-6.55,3.4-13.05,5.16-19.56.21-.77.12-2.22,1.84-1.4-.86,4.23-1.74,8.44-2.58,12.65-.77,3.87.34,7,3.7,9.23,1.75,1.19,3.33,2.65,4.87,3.9,1.82-1.4,3.68-2.85,5.57-4.26,2.24-1.68,3.67-3.76,3.64-6.69,0-2.09,0-4.17,0-6.26,0-2.34,0-4.68,0-7,2.1.18,3.8,1.52,3.81,3.17,0,8.22,0,16.44,0,24.66,0,.52-.81,1.29-1.4,1.5-2.09.73-4.3,1.14-6.38,1.91-6.27,2.31-9.41,6.95-9.46,13.57,0,3.33.39,6.67.45,10,.12,6.4-1.44,8.56-6.65,9.53-.06,0-.1.09-.26.26a13,13,0,0,0,7.48,3.29c3.6.23,5.82-2.05,7.81-4.71l.69.2,1,11.77c3-.54,4.58-3.19,6.57-5.68l1.54,4.17,4-3.09,1.22,8a10.81,10.81,0,0,0,5.93-4.67,27.31,27.31,0,0,1,2.9-2.94l2.62,6.33,3.48-4.65c.17.13.45.33.71.56,3.44,3,7.15,4.57,11.61,2.14a1.52,1.52,0,0,1,1.19-.11c2,1,4,2,6.09,3.05-5.79,5.05-6.69,6.7-5.83,10.53,3.65-4.69,6.19-5.63,10.25-3.58a18.21,18.21,0,0,1-1.87,1.37c-2.8,1.54-5.54,3.23-8.45,4.52-7.15,3.18-14,6.72-20.14,11.72a14.66,14.66,0,0,1-6,2.67c-3.7.82-6.15-2.43-4.72-6,.39-1,1-1.89,1.61-3.12-4.52.53-8.08,2.2-9.89,6.12a10.51,10.51,0,0,0,2.53,12.84c-1.77,2.17-3.77,4-5,6.31-2.08,3.78-1.1,8.59,1.83,11.81,2,2.23,4.34,4.37,3.44,7.94,2.63-.93,4.24-2.5,4.4-5.34a8.51,8.51,0,0,1,.78-2.8c.6-1.39,1.36-2.71,3.42-2.94-.74,6.15.75,11.59,6.45,14.25s11,.89,15.44-3.51a16.93,16.93,0,0,0,25.54,8.56,17.86,17.86,0,0,0,1.55,2.68,46.43,46.43,0,0,0,5.38,6c2.17,1.84,3.45,1.8,5.59,0a44.15,44.15,0,0,0,5.1-5.71,23.62,23.62,0,0,0,1.84-3.15,15.67,15.67,0,0,0,14.63,2.24A15.38,15.38,0,0,0,227.16,382c4.62,4.75,10,6.13,15.53,3.69,5.93-2.61,6.86-8.34,6.68-14.41a5.93,5.93,0,0,1,3.8,5.64c.13,3.09,2,4.51,4.54,5.64-.72-3.26,1-5.43,3-7.45A11.05,11.05,0,0,0,259.17,358l-1.62-1.17c3.94-4,5.06-9.06,3-13.24-1.77-3.59-6.18-6.2-9.87-5.76.38.62.78,1.18,1.1,1.78,1,1.82,1.42,3.74,0,5.49a4.28,4.28,0,0,1-5.29,1.32,26.49,26.49,0,0,1-6.34-3.47,66.58,66.58,0,0,0-14.61-8.81c-4.35-2-8.55-4.34-12.79-6.57a13.61,13.61,0,0,1-1.83-1.42c4.93-2.08,8,0,10.47,4.11.89-5.11-1.3-8.25-5.83-10.25,2.89-1.35,5.19-2.49,7.56-3.48a2.86,2.86,0,0,1,2.09.11,8.36,8.36,0,0,0,8.88-.78c1.07-.73,2.07-1.57,2.88-2.19l3.45,4.62,2.49-5.89c3.85,1.68,4.55,6.64,9,7l1.22-7.79,4,3.07,1.56-4.25c1.89,2.68,3.56,5.18,7.07,5.85a24.31,24.31,0,0,1,1-12.12c5.37,5.7,11.29,6.14,15.29,1.3-6-2-6.86-3.16-6.73-9.65.07-3.34.4-6.68.42-10,.05-6.42-3-10.92-8.93-13.28a62.18,62.18,0,0,0-8.43-2.25c-1-.25-2-.28-1.94-1.82.07-8,0-16,0-24,0-1.85,1.63-3.26,3.86-3.32,0,.89,0,1.79,0,2.68,0,3.48,0,7-.05,10.45a7.77,7.77,0,0,0,3.41,6.58c2,1.51,3.92,3.07,5.73,4.48,1.84-1.46,3.63-3,5.52-4.37a7.34,7.34,0,0,0,3.25-6.64,55.69,55.69,0,0,0-1.08-7c-.5-2.63-1.12-5.23-1.68-7.84l.78-.38a7.67,7.67,0,0,1,1.06,1.78q2.67,9.87,5.22,19.76a7,7,0,0,0,4.87,5.45c2.37.74,4.62,1.83,6.81,2.71,1.54-1.86,3.07-3.75,4.65-5.6a6.89,6.89,0,0,0,.9-8.62c-3.31-6-6.38-12.21-9.54-18.33-.36-.69-.64-1.42-1-2.13l.54-.3a22.19,22.19,0,0,1,1.31,1.84c4.14,7.26,8.29,14.5,12.34,21.8a7.09,7.09,0,0,0,5,3.78c2.56.54,5.14,1,7.7,1.45,1.27-2.52,2.57-4.9,3.68-7.36a7.15,7.15,0,0,0-1.11-8c-5-6.17-9.89-12.42-14.81-18.65-.42-.53-.74-1.13-1.11-1.7l.55-.41c.5.5,1,1,1.49,1.5q8.74,10.26,17.46,20.54a10,10,0,0,0,9.9,3.57c2.32-.39,4.62-.9,7.25-1.42,0-2.67.53-5.58-.15-8.16s-2.56-4.65-3.78-6.72l2.22,1.06c4,1.89,8,1.58,12,.28a2.26,2.26,0,0,0,1.28-1.52c.65-4.77-.21-9-4.43-12-.17-.12-.25-.38-.58-.89,7.84,2,14.3.25,19.55-5.34-2.86-4.91-4.52-10.91-11.44-12.1a22.48,22.48,0,0,1,3.53-.7c5.3-.92,9.83-3.07,12.46-8.09,1.26-2.41,1-3.8-1.38-5a41.68,41.68,0,0,0-8-3.43,81.74,81.74,0,0,0-9.3-1.57c2.31-.62,4.75-1.14,7.1-1.94,5.61-1.92,10.78-4.61,14.44-9.48,2.39-3.18,1.41-5.88-2.46-6.2-5.52-.45-11.09-.41-16.63-.58-.63,0-1.26,0-1.89,0a14.57,14.57,0,0,1,3.38-1.77C360.49,164.32,365.77,162.18,369.93,158.24ZM286.8,72.47c1.15,5-.16,8-4.89,10.86,3.49-6.07,1.34-11.45-1.13-16.85a67,67,0,0,1-3.07-8c-.31-1,.12-2.24.22-3.37l.75.18.41,3.08,1.43-4.28.67.21L281,57.91l2-3,.55.08C282.17,61.32,285.46,66.69,286.8,72.47Zm32.84,14.4c-1.51-1.72-3.28-2-5-.77-4.18,3.11-9.77-.46-10.12-5.2a3.74,3.74,0,0,0-.14-.6c-2.33,1.75-2.93,5.44-1.32,8.41.69,1.28,1.58,2.46,2.29,3.74,2.11,3.78.37,7.63-3.94,8.81,0-.12-.13-.28-.08-.36,3-4.91.54-8.8-2.46-12.49-3.44-4.22-3.64-6-.83-10.63.5-.83,1-1.65,1.55-2.48,3.59-5.72,3.77-8.13.87-14.73,2.92,1.47,3.78,3.66,4.18,6.35a17.63,17.63,0,0,0,.16-2.64,24.78,24.78,0,0,0-.62-3c2.59,1.55,2.28,3.91,2.21,6.18H307l.52-5.2c2.1,1.16,1.49,3.35,1.73,5.23l.59.05.38-4.25c1.39,1.22,1.55,1.84,1.27,5.31,2.19-1.65,1.25-3.55.33-5.62,2.63,1.81,3,4.4,1,6.29a32.4,32.4,0,0,1-3,2.31A8.74,8.74,0,0,0,307,82.19c1.09,2.65,4.39,3.85,7.46,2.7.65-.25,1.25-.62,1.9-.86C318.69,83.15,319.82,84,319.64,86.87ZM288.36,48.79l-3.78-1.87c2.24-2.13,4.12.31,6.11.66l.21-.6-4-2.38c1.18-.15,1.93-.48,2.44-.25a12.89,12.89,0,0,1,3.72,2.19,79.59,79.59,0,0,1,6.83,7.59c-6.3-.46-11.87-2.78-17.23-5.82C284.75,47.25,286.23,49.43,288.36,48.79ZM275.14,84.58c4.58-4.1,5.74-8.5,3.62-14.28-.91-2.47-2.19-4.81-3.2-7.24-.75-1.79-1.4-3.62-2-5.48-1.79-5.74,2.77-7.63,6.72-7.44a9.94,9.94,0,0,1,3.8,1c6.25,3.08,12.94,4.57,19.7,5.94a34.65,34.65,0,0,1,8.63,3c6,3,6.53,8.51,1.39,12.82-.53.45-1.27.75-1.61,1.31-.84,1.38-1.93,2.81-2.15,4.33-.47,3.2,1.95,4.74,4.88,3.38,3.87-1.79,5.63-1.13,6.62,2.85-1.93-3.75-4.46-2.64-7.22-1.41-3.35,1.49-6.21-.41-6.45-4a7.07,7.07,0,0,1,2.28-6c1-.94,2.07-1.86,3.15-2.74,3.39-2.75,3.22-7.05-.74-9a32.58,32.58,0,0,0-8.39-2.29,88.08,88.08,0,0,1-20.15-6,7.75,7.75,0,0,0-4-.57c-3.31.48-4.92,3.14-3.79,6.31,1.32,3.73,3.11,7.3,4.35,11.05A25.14,25.14,0,0,1,282,77.81c0,4.88-5.39,9.63-10.55,9.6C272.75,86.43,274,85.58,275.14,84.58ZM96.55,44.95l-3.48,2,.15.56c2-.12,3.92-2.71,6.18-.55l-3.89,1.84.27.64,5.28-1.75c-1.77,2.8-12.85,6.74-16.64,6.42C86.69,48.83,94.1,43.11,96.55,44.95Zm-12.49,30a52.66,52.66,0,0,1,2.83,4.87c1.54,2.88,1.06,5.31-1,7.86A37.23,37.23,0,0,0,82,93.53c-1.41,2.6-.67,5.21.93,7.8-4.54-1.17-6.37-5.06-4.39-8.72.73-1.34,1.65-2.58,2.37-3.93a7.05,7.05,0,0,0-1.1-8.42A20.71,20.71,0,0,1,78.31,84c-2.12,3.37-5.13,4.11-8.84,2.21-1.86-1-3.52-1.31-5,.58-.58-2.37.51-3.52,2.72-2.94a5,5,0,0,1,1.16.47c2.47,1.39,5,1.57,7.21-.3s2.39-4.6,1.83-7.3a7.73,7.73,0,0,0-3.3-5.12,20.46,20.46,0,0,1-3.2-2.67c-1.76-1.79-1.35-4.25,1-5.76-.53,1.89-1.71,3.77.63,5.49-.4-2.24-.37-4.21,1.54-6.15v4.93l.26,0,1.62-5.5.5.18.41,5.32.66,0c0-2.24-.38-4.63,2-6.14L79,66.84l.56.12c.18-2.56.85-4.83,3.37-6.1.06.24.17.4.12.49C80.66,66.08,81.09,70.57,84.06,74.94ZM97,73.06c.53-2.22,1.35-4.38,2-6.57a39,39,0,0,0,1.51-5.62c.26-1.89.06-3.84.39-6l2.08,3-.22-3.49.6-.22,1.52,4.15.38-3.26a2.72,2.72,0,0,1,1.06,3.46c-1.05,2.93-2.33,5.79-3.42,8.7a51.46,51.46,0,0,0-2.5,7.48,10.54,10.54,0,0,0,1.73,8.53A8.59,8.59,0,0,1,97,73.06Zm5.56-1c1.44-4.06,3.18-8,4.86-12,.95-2.25,1-4.45-.78-6.19s-4-1.59-6.27-.78c-3.66,1.33-7.25,2.9-11,3.9-5.1,1.37-10.31,2.3-15.48,3.4-3.11.66-5.24,2.67-5.53,5.21a4.7,4.7,0,0,0,2,4.73A37.14,37.14,0,0,1,74,73.5a7,7,0,0,1,2,6.3,4.31,4.31,0,0,1-5.91,3.76c-.59-.19-1.16-.48-1.74-.72-2.82-1.17-3.57-1-5.63,1.2.28-2.24,1.83-3.43,3.94-2.93a14.25,14.25,0,0,1,2.54.93c2.55,1.15,4.89-.34,4.8-3.13a6.88,6.88,0,0,0-3.38-5.68c-2.08-1.41-3.73-3.16-3.94-5.84-.26-3.18,1.68-6.28,5.53-7.76a67.63,67.63,0,0,1,11.19-3.22,66.58,66.58,0,0,0,15.86-5c2.94-1.39,5.92-1.94,9-.24,1.63.9,2.76,2.1,2.37,4a52.58,52.58,0,0,1-2.09,7.58c-.91,2.47-2.32,4.75-3.29,7.21-2.44,6.22-1,11.27,4.31,15.35.92.71,1.89,1.37,3.23,2.34C104.21,86.54,99.83,79.72,102.53,72.11Zm262.35,52.08c.28,0,.55-.06.83-.08,2.91-.16,3.48.52,2.7,3.39-1.43,5.22-4.35,9.56-7.93,13.56A38.5,38.5,0,0,1,347,150.35c-5.52,2.46-11.17,4.64-16.71,7.07-1.66.73-2.81.67-3.81-.92-.23-.37-.78-.54-1.49-1l24.4-15.3-.33-.64L316.78,155l-.42-.59c2.73-2.4,3.71-6.07,7.08-8.13,8.78-5.38,17.26-11.23,26-16.61C354.17,126.77,359.24,124.57,364.88,124.18Zm-69.54,75.89c-1.77-.57-2.2-1.63-1.9-3.52,3.89.75,7.65,1.76,11.48,2.13,3.44.33,5.4,2.25,7,4.87,1.32,2.1.69,3.42-1.81,3.7a41,41,0,0,1-4.34,0c2.18,1.77,6,2,7.13.13,2.21-3.52-1.14-5.37-2.9-7.68,3.09.43,6.14,3.94,5.75,6.88a3.67,3.67,0,0,1-1.71,2.61c-1.89.71-4.05,1.46-6,1.18-5.78-.85-11-3.41-15.94-6.63.66-1.71,1.55-2.36,3.48-1.85a58.12,58.12,0,0,0,9.24,1.55C301.72,202.34,298.56,201.11,295.34,200.08Zm16.7-1.94c-5.91-.88-11.8-1.9-17.63-3.17-1.21-.27-2.13-1.89-3.19-2.88l.31-.68c5.05-1.48,10.13.34,15.4,0l-11-2.14c.72-1.8,1.5-3,3.6-2.9,4.85.28,9.73.2,14.55.77a12.43,12.43,0,0,1,5.68,2.75c2.31,1.79,2.14,4.08-.14,6A9.46,9.46,0,0,1,312,198.14Zm-13.27-13.66c-.13-1.84.48-2.77,2.2-3.1,3.41-.64,6.79-1.43,10.15-2.34-3.47,0-7-.19-10.42.06-2.5.18-4.08-.8-5.56-3L302,174.8c4.23-.85,8.44-1.76,12.68-2.53a11,11,0,0,1,8.36,1.8c3.18,2.16,3.35,5.37.32,7.76a11.29,11.29,0,0,1-3.86,2C312.66,185.73,305.75,185.17,298.78,184.48Zm17.58-15c-7.47,1.9-15,3.61-22.5,5.37a3.17,3.17,0,0,1-2-.23c1.93-1.65,3.68-3.64,5.84-4.88,3.72-2.14,7.71-3.82,11.47-6l-11.49,3.79c-.51-1.87-.1-2.93,1.71-3.68,3.59-1.5,7-3.48,10.6-4.87a16.47,16.47,0,0,1,11.81.16,1.68,1.68,0,0,1,.9,2.72,17.33,17.33,0,0,1-3.49,3.42,21.33,21.33,0,0,1-3.68,1.78A9,9,0,0,0,324,162.5c1.34-2.24.66-4-1.89-4.6a51.2,51.2,0,0,0-6.18-.82,3,3,0,0,1-1.13-.3,13.66,13.66,0,0,1,9.71.18c2.33,1,2.8,3.51,1.15,5.81A16.47,16.47,0,0,1,316.35,169.47Zm-8.7-20a12.69,12.69,0,0,0-1.69.67c-4,2.29-8,4.67-12.13,6.9-2.68,1.46-5.47,2.71-8.22,4.05l-.46-.69c1-.92,1.91-1.94,3-2.75,5.71-4.33,11.52-8.53,17.16-12.94a25.18,25.18,0,0,1,12.81-5c2.51-.31,3.06.28,2.68,2.73A18.71,18.71,0,0,1,311.7,156a91.89,91.89,0,0,1-13.1,6.34c-1,.41-2.73-.91-4.7-1.65l13.93-10.83Zm6.77-34.73c11.81-14.24,20.75-30.28,29.51-46.45.61-1.12,2.2-2.91,2.55-2.75,1.39.66,3,1.75,3.57,3.08,3.58,8.93,3.58,17.85-1.45,26.27-4.17,7-8.67,13.79-13.19,20.57a34.69,34.69,0,0,1-5,5.59c-4.32,4.14-8.76,8.17-13.15,12.24a14.79,14.79,0,0,0-2,2.08c17.06-10.93,30.57-25.9,45.25-39.85,1.89,2,2.38,4.47,2.59,6.92a21.34,21.34,0,0,1-4.22,15.12,45.24,45.24,0,0,1-12.76,11.86c-7.25,4.42-14.36,9.08-21.52,13.63-.7.44-1.41.86-2.14,1.3-.54-2.48-.13-3.52,1.59-4.85q10.49-8.11,20.93-16.28a3.53,3.53,0,0,0,1.24-1.66c-3.67,2.45-7.36,4.87-11,7.34-4.15,2.81-8.26,5.69-12.4,8.5a4.42,4.42,0,0,1-1.84.84c-3.41.38-6.83.66-10.18,1,2.31-2.64,3.25-6.24,4-10a7,7,0,0,1,1.89-3.26A119.73,119.73,0,0,0,339,94.88a5.87,5.87,0,0,0,.57-1.72c-7.17,9.94-14.27,19.91-23,28.54a3.38,3.38,0,0,1-.72.45c-.65-2.11-1.32-4.13-1.87-6.17A1.75,1.75,0,0,1,314.42,114.72Zm-8.8,17.8-9.52,8.61c-.34-2.18-.68-3.85-.79-5.53,0-.47.59-1,1-1.48,2.75-2.95,5.75-5.7,8.24-8.86s4.64-6.87,7.12-10.61a16.55,16.55,0,0,1,1.78,3.61,22.67,22.67,0,0,1-4.17,19.9c-4.4,5.62-10.28,9.71-16.55,13.53a49.18,49.18,0,0,1,3.5-6.55c2.63-3.57,5.61-6.89,8.41-10.34a15.64,15.64,0,0,0,1.23-2.1Zm-65.53,33c-1.82,4.38-4.85,5.82-9.08,4.64-4.9-1.37-7.38-4-6.86-7.38l4.29,3.42c-2.64-3.28-5.66-6.25-4.3-11.16C226.48,162.89,231.38,167,240.09,165.51Zm-82.15-37c1.09.93,2.23,1.82,3.27,2.81s2.24,2.29,3.33,3.46,2,2.25,3,3.37l.48-.24-4.52-14.1c4,3.58,6.67,7.57,7.69,12.58.9,4.45-.22,18.46-1.79,23l-3.46-19.13-.89.05c-.21,7.72,1.26,15.77-3.9,22.81.29-6.1.81-11.9.77-17.7A37.44,37.44,0,0,0,157.94,128.49Zm-8.75-19.3c6.23,1.62,14.84,14.77,16.2,24.92-.7-.66-1.14-1.11-1.62-1.51-3.57-3-7.18-5.9-10.73-8.89-3.26-2.75-6.48-5.56-9.71-8.34l.49-.51,13.53,8.87.55-.54C155.79,118.1,152.51,113.69,149.19,109.19Zm20.42,4.11.23-.57c1.57.63,3.55.85,4.63,1.95C181.69,122,185.72,131.08,188,141c0,.12-.06.26-.19.71-.65-1.11-1.21-2-1.73-2.95a78.74,78.74,0,0,0-12.32-16.48c-2.74-2.77-5-6-7.43-9.08l.66-.57,7.1,6.25.33-.33ZM161,106.37c-.78-.82-1.95-1.83-.71-3,1-1,2.1-.33,3.06.61a28.07,28.07,0,0,0,15.49,7.92c.54.09,1.07.24,1.6.37A19.67,19.67,0,0,1,161,106.37Zm5.63,8.43a12.69,12.69,0,0,1,1,2l-.35.47a11,11,0,0,1-2.6-1.3c-2.49-2.22-4.87-4.56-7.3-6.85-.52-.49-1.06-1-1.59-1.46l-2.61-3.91c2.34-.56,4.17-.83,5.62,1C161.41,108.11,164,111.44,166.61,114.8Zm-4.24,1.13,3.55,4,.24-.1-.85-2.1c2.34.23,4.67,1.47,5.43,3.42,2,5.21,3.85,10.51,5.76,15.77l-.73.4c-.42-.54-.83-1.08-1.26-1.61-3.67-4.51-7.51-8.91-10.94-13.6-1.15-1.57-1.31-3.87-1.92-5.84Zm2.74,42.53c1.17-2.3.14-4.33,1.23-6.61a13.39,13.39,0,0,1,1.62,6.57,20.16,20.16,0,0,1-2.41,9.59c-1,2-2.31,3.2-4.72,2.75a19.79,19.79,0,0,0-3,0C161.35,166.74,163,162.51,165.1,158.46Zm3.37,7.44c.43-.18.52-1.22.73-1.88.6-1.92,1.17-3.84,1.75-5.76a14.22,14.22,0,0,1,.42,11.5c-.85,2-3.05.65-5.05,1C167.12,168.89,166.21,166.86,168.48,165.9Zm4.36-16.9,1,4,.31,0-1-8.16c5.69,5.54,6.11,22,.47,26.11-.15-3.81-.06-7.42-.49-11S171.43,152.78,172.84,149ZM172,135.5l.64-.35,5.92,8-3.28-13.94.52-.17a33.41,33.41,0,0,1,4.67,10.58,29.87,29.87,0,0,1,.72,6.38c.1,5.14,0,10.28,0,15.42l-.63.11Zm6.45,33.14c.13-2,.3-4.06.46-6.1l.59,0,.91,4.07H181l1.07-6.69.6,0c.37,2,.74,4.09,1.1,6.14.06.34,0,.69.1,1,.55,3.8,1,3.59-3.27,3.74C178.94,170.82,178.31,170.18,178.41,168.64Zm4-14.67a47.46,47.46,0,0,1-.31-6.11l.69,0,1.63,7.48.21,0-.72-8.53.34-.11,2.06,5.53c1.77,4.76,3.73,9.49,3,14.76a7.35,7.35,0,0,1-.65,2.8,2.86,2.86,0,0,1-2,.85c-.35,0-1-.65-1.1-1.1C184.38,164.32,183.27,159.16,182.36,154Zm1.45-11c-2.52-5.89-5.79-11.46-8.49-17.38a17.5,17.5,0,0,1,1.54,1.77c4,6,8.1,11.82,11.77,18,1.22,2,1.49,4.76,1.74,7.22.29,2.89.07,5.82.07,8.74l-.22-.05C188.11,155.11,186.34,148.87,183.81,142.95Zm3-11a50,50,0,0,0-9.68-16.88c2.81-.91,5.51-1.74,8.15-2.69a4.53,4.53,0,0,0,1.75-1.68,27.56,27.56,0,0,1-22-7.21l8.16-6.22-.25-.37-9.39,1a29,29,0,0,0,12.47-10.28A35.72,35.72,0,0,1,158,89.55c.65-.23,1.29-.5,1.95-.7A72,72,0,0,0,179.64,80a12.84,12.84,0,0,0,3-2.24c1.64-2,3.64-2,6-1.84,3,.19,6-.09,9-.09a3.37,3.37,0,0,1,2.11.48c6.91,6.39,15.5,9.39,24.23,12.12l2.35.75,0,.62c-1.93,0-3.87.06-5.8,0a57.49,57.49,0,0,1-6.23-.49c-2-.3-3.89-.87-6.14-1.4,3.16,4.73,7.39,7.67,12.24,10L211,97l-.27.35,8.11,6.13c-6.17,5.9-13.54,8.09-22.27,7,2.79,3.48,6.62,3.66,10.64,4.25a49.79,49.79,0,0,0-10,17.24c-2,6.26-3.6,12.65-5.19,18.33C190.43,144.61,188.85,138.23,186.84,132Zm-3.24-66.15c.35-.18,0-1.68,0-2.94l4.71-.78.17,3.77-7.76,1.2-.43-3.23,1.1-.46C181.24,65.15,180.71,67.28,183.59,65.84Zm-10.8-16c2.66,1.48,2.74,1.68,1.63,3.68C171.84,52.7,171.65,52.3,172.79,49.84Zm-1.34-9.41c2.68,3,2.71,3.17,1,6C169.36,44.63,169.16,43.38,171.45,40.43Zm9.71,12.49-3.95-1.46,1.14-2.15,3,3.3Zm3,3.65c-2.69.24-4.25-1.38-5.87-3.65C181.2,53.09,182.39,55.29,184.16,56.57Zm-6-10c-2.89-2.73-2.92-3.06-.6-5.53C180.23,43.56,180.31,44.21,178.14,46.59Zm-2,3.33c-2.79-1.29-3-1.88-1.33-4.47C177.54,48,177.55,48,176.13,49.92Zm-.86,6.3,3,1.59C175.13,58.26,174.6,57.95,175.27,56.22Zm.85-1.39c-.23-.13.07-1.15.13-1.76l.78-.24,2.42,3.33A21.1,21.1,0,0,1,176.11,54.83Zm10.38,5.32c-3.51.62-5.18-.12-7.6-3.21C180.82,56.54,181.46,56.81,186.5,60.14Zm21.45,10.4h-1.81l0,0c-3.93-2-8.23-2.3-12.5-2.54a45,45,0,0,0-15.83,2.11c-.59.18-1.2.26-2.17.46C179.15,65.73,204.37,65.8,207.95,70.55Zm-17-4.74V62.13h1.9l-.3,3.68ZM205.87,53c-1.34,1.11-2.64,2.28-4.06,3.28-.36.25-1.1,0-1.66-.09l-4.57,3.8-.66-.54,1.12-3,4.43-2.9.51.39-.7,2.14C201.92,54.57,203.29,52.63,205.87,53Zm-1.15,3.28c-1.5,3.64-4.32,4.89-7.33,3.66Zm-4.16,6.65c-.13,1.07-.56,2.12-.24,2.84.2.44,1.54.38,2.37.54l.2-.5.53,1.34-8.78-1.34c1.38-1.14,1.42-2.33-.19-3.8ZM196,70.59a7.24,7.24,0,0,1-7.91,0A9.64,9.64,0,0,1,196,70.59Zm-7.5,2.17a43.89,43.89,0,0,0,6.44,0c1.47-.12,2.23.35,2.6,2H186.06C186.27,73.05,187.06,72.66,188.5,72.76Zm37.93,50.78c5.23-2.43,9.86-5.84,14.47-9.32a34.46,34.46,0,0,1-9.47,9.19,58.45,58.45,0,0,0-11.81,9.88,6,6,0,0,1-.68.54c0-7.92,8.32-21.08,15.66-24.74L225.83,123ZM222.85,163c-5-7.25-3.86-15.17-3.64-23-1.22,1.28-1.9,3.42-2.88,9.47-.53,3.27-1,6.56-1.43,9.84-1.74-7.39-2.88-14.8-2-22.36.61-5.37,3.66-9.32,7.69-13.22l-4.42,13.89.34.08,9.33-9.21.48.33a34.42,34.42,0,0,0-4.13,16.58C222.19,151.15,222.6,156.87,222.85,163Zm-2.15-41c-3.83,4.85-7.77,9.6-11.67,14.39-.21.26-.43.51-.65.77l-.73-.29c1.84-5.21,3.41-10.54,5.68-15.57.82-1.81,3.3-2.86,5-4.26l.51.51-1,2.17.19.2,4-4.47C222,118.08,222.07,120.24,220.71,122Zm-10.21-3.58,6.87-6.06.38.28c-.84,1.31-1.6,2.68-2.55,3.9a59.7,59.7,0,0,1-5.24,6.21c-5.16,5-9,10.91-12.53,17.09a4.66,4.66,0,0,1-1.55,1.78c.42-1.55.81-3.1,1.27-4.64a55.77,55.77,0,0,1,11.55-21.49c1.61-1.82,3.47-2.3,6-2.39L210.12,118Zm6.53-1-.58-.42a6.59,6.59,0,0,1,.65-1.54c2.87-3.74,5.73-7.5,8.71-11.15,1-1.28,2.89-1.28,5.05-.19C226.66,109.08,222.81,114.25,217,117.38Zm7-12.32a4.21,4.21,0,0,1-.82,1.19c-6,5.71-10.9,7.68-20.26,6.14,1.61-.32,2.68-.5,3.74-.74A30.24,30.24,0,0,0,220.86,104a3.38,3.38,0,0,1,1.91-1C224.11,103,224.72,103.72,224.06,105.06Zm-29.78,44a12.15,12.15,0,0,1,1.78-5c3.73-5.79,7.65-11.45,11.52-17.14a4.27,4.27,0,0,1,1.75-1.49,117.23,117.23,0,0,0-15,35.67l-.78-.19C193.75,156.92,193.83,153,194.28,149Zm.78,12.51c1.17-5,2.94-9.76,4.46-14.63l.64.18-.49,6.62.32.06,1.36-6c.9,3.48.38,6.83-.38,10.19-.8,3.58-1.46,7.2-2.2,10.79-.18.89,0,2-1.52,2a1.78,1.78,0,0,1-2.07-1.8C195,166.5,194.5,163.89,195.06,161.56Zm5.13,5.07c.34-2.26.75-4.5,1.13-6.75l.61,0c.22,1.13.5,2.25.66,3.39s.19,2.2.28,3.31l.8.06,1-4.17h.6c.1,2.4.24,4.81.24,7.21,0,.34-.66.68-1,1,0,0-.14,0-.2,0C200.05,171.28,199.56,170.8,200.18,166.63Zm3.29-4.93c-.07-11-2.64-22.43,5.22-32.29-.47,2.22-.91,4.45-1.42,6.66s-1.11,4.43-1.81,7.17l5.91-8,.68.36Zm7.46-17.28-1.17,9.43.21,0,1.29-4.9.77.11-1.82,21.42C204.67,168.67,205,151.46,210.94,144.42Zm1.35,13.73.77,0c.57,1.9,1.11,3.82,1.73,5.71a3.75,3.75,0,0,0,1.63,2.58c.89.55.88,2.58,1.27,4a3.27,3.27,0,0,1-.52.29c-4.19.45-5.08-.14-5.3-4.33A74.76,74.76,0,0,1,212.28,158.14Zm4.53-4.12c.2-.69.53-1.35.8-2,.56,7.2,4,12.92,8.13,18.34-4.65,1.09-6,.45-7.87-3.72A17.9,17.9,0,0,1,216.81,154Zm48.55-28.73c1.21,1.57,1.22,3.27.14,5.63-1.75-6.43-7-7.53-12.26-9C256.94,120.77,263.33,122.68,265.36,125.3Zm6-5.29a38.79,38.79,0,0,0,6.75,2.67c3.52,1,7,1,10.43-1.33a11,11,0,0,1-1.2,2.32,9.55,9.55,0,0,1-10.5,3.21,14.85,14.85,0,0,1-5.08-2.27,28.49,28.49,0,0,0-14.56-5.66c-.8-.1-1.6-.27-2.4-.41A22,22,0,0,1,271.39,120Zm-3.48-22.65c7-.81,13.67,1.51,14.51,10.46a9.38,9.38,0,0,1-3.06,7.64c-7.63-4.91-18.54-4.52-26.48,1.05a53.19,53.19,0,0,0-6.13,5.33,6.13,6.13,0,0,1-6.7,1.59,10,10,0,0,1,1.45-1.22,69.8,69.8,0,0,0,25.15-23.91A2.08,2.08,0,0,1,267.91,97.37Zm-2-3.68c.22.91.91,2,.59,2.69a41.58,41.58,0,0,1-3.82,6.19c-6.14,8.31-14.17,14.48-22.89,19.84-7.88,4.83-12.69,11.88-15.1,20.7-.16.59-.33,1.18-.5,1.77-1-4.84-.55-9.37,2.25-13.41a44.56,44.56,0,0,1,15.35-13.87c2.25-1.24,4.44-2.6,6.61-4a31.48,31.48,0,0,0,11.71-12.75,50.07,50.07,0,0,1,3.33-6C263.84,94.19,265,94.06,265.89,93.69ZM246.79,53.92V51.34l2.29.45-.22-2.43h2.36l-.24,2.4,2.49-.38v2.56l-2.46-.4.3,2.33h-2.47l.36-2.33Zm3.36,3.27A2.8,2.8,0,0,1,252.86,60,2.71,2.71,0,0,1,250,62.66a2.69,2.69,0,0,1-2.7-2.8A2.78,2.78,0,0,1,250.16,57.19Zm-1.93,7.58c1.29-1.46,2.37-1.31,3.85-.09C250.64,65.77,249.56,65.8,248.23,64.77Zm.57,9.86-.86,0V68.55l.26,0Zm-5.17-10.51,1.74,13.64-.85.12L242.6,64.26Zm-2.13.08c.49,1.41,1.05,2.78-.6,3.91C239.05,65.73,239.18,64.87,241.49,64.2ZM241,74.05c-1.38-1-2.17-2.06-.38-3.55C241.49,71.58,242.86,72.52,241,74.05Zm-2.35-7.14c1.66,2.05,1.67,2.21.09,4.23C236.85,68.94,236.85,68.91,238.63,66.92Zm-3.22,3.83-.77,0c-1.51-1.37-.93-2.56.19-3.7l.79,0ZM237.09,74c-1.61-1.08-2.06-2.29-.47-3.86C237.73,71.41,238.76,72.54,237.09,74Zm1.23,8.6,1.47.56-.37-1.28,3.31.94-1.47-2.4c.9-1.93,2.07-.38,3.13-.24l-.13-1.57,2.5,1.33-.21-2.45,1.76.93,1.9-5.72,1.56,5.74,1.89-1.2L253,80.18l3-1.65-.61,1.74,4.74-2.62.66-1.78L259,75.39l-1.88,3.09-.73-.32L257,74l1.42.53.6-2.28c-1.92-.47-1.79-1.86-1.27-3.2.64-1.64,1.48-.21,2.24,0-.09-2.66.68-3.19,2.92-2.06.2.1.52,0,.78,0l.72.09a26,26,0,0,1,2.26,2.93c.21.36-.2,1.09-.33,1.65l-1.41-.53-.68,2.44c1.82.49,2.4,1.83,1.41,3.25s-1.89,0-2.83,0l-.39,3c1.27-.35,1.83,0,1.12,1.28-.6,1.09-1.37,2.08-2,3.17a2.84,2.84,0,0,0-.52,1.65c.35,2-.35,2.55-2.31,2.51-5.82-.11-11.65,0-17.47-.05-.61,0-1.22-.07-1.71-.1Zm21.19,8.21a14.26,14.26,0,0,1,1.88,0c1.22.15,1.83.85,1.24,2-2.16,4.28-4,8.78-6.69,12.73-3.34,4.94-8.62,7.69-14.14,10.11l6-8.69-.41-.35c-2.93,2.71-5.71,5.61-8.82,8.08s-6.69,4.63-10.06,6.92l-.69-.62c2.08-3,4-6.24,6.3-9.09s5.05-5.3,7.52-8c-7.36,3.09-13.16,8.3-18.64,14.11.1-2.24,1.57-5.45,4.32-8.79,2.06-2.51,4.38-4.82,6.52-7.14-3,.17-6,.5-9.09.48A12.48,12.48,0,0,1,216,99.35c2.51,0,4.61,0,6.71,0,6.19,0,12.38-.25,18.56-.06A20.82,20.82,0,0,1,254,103.45c1,.78,1.52.24,2-.59.87-1.67,1.7-3.35,2.55-5s.13-2.1-1.38-2c-3.74.36-7.47.9-11.22,1.12-5.68.33-11.41.93-17.05.52-4.78-.34-9.69-1.31-13.67-4.55-.54-.44-1.08-.88-1.6-1.34a3.7,3.7,0,0,1-.43-.71c2,.14,3.72.4,5.47.38C232.22,91.19,245.86,91,259.51,90.85ZM248,99l.17-1.31h3.92L251.7,100Zm9.7-2.45a18,18,0,0,1-2.79,6.56C253.84,101.69,255.25,98.34,257.68,96.51ZM196.89,70.6c2.14-.94,3.59-.55,5.13,1.27,4.12,4.86,9.53,8,15.22,10.72,3.82,1.8,7.7,3.46,11.69,5.24C219.65,87.13,200.34,78.57,196.89,70.6Zm15.34,5.56c3.74,2.88,7.66,5.53,11.41,8.21-4.33-.3-17.57-8.91-20.28-13.48l2.84-.28C208.2,72.48,210.07,74.5,212.23,76.15Zm-3.87-12.83-6.9-2a7.91,7.91,0,0,1,7.25-2.12l-2.39,1.6c1.2.44,3.45-.65,3.16-1.65-.49-1.71.16-2.82,1.06-4,.09-.12,0-.37,0-.57l2.09.19C213.27,56.36,213.1,56.7,208.36,63.32ZM208,32a4.58,4.58,0,0,1,1.2.42l-.83,2.18h-2.27s-.12-.2-.21-.38l-1.22-2.36C205.8,31.9,206.91,31.9,208,32Zm-2.73,5.46,1.16,1.07,1.93-3.9,1.39-.36,2,1.38.1-1.93c2.9.57,6.23,5.05,5.73,7.9-.1.56-.86,1-1.44,1.65L214.79,41l-1.32,4.74H215c2.21,3.24,1.79,4.91-1.38,5.91l-1.78-1.3c.1,1.56.24,3.12-1.26,4.18h0l-1.84.58-1.66-2v3l-2.91-.31L205.89,53h0l1.36-.23.8-4-2.84-.32c-.25,1.72-.48,4-3.59,4.74l1-6.83.8-.33.67,2,.64-.41.92-4c-1.22,0-2.44-.48-2.27-2.2C203.51,39.78,202.91,37.84,205.29,37.47Zm-2.83-6.16.71.12-2.92,21C199,50.67,201.4,32.5,202.46,31.3Zm-6.71,3.87v5.48h0C194.48,38.83,195.48,37,195.75,35.18ZM192,37.9l-2.19-1.62c.74-.47,1.47-1.31,2.21-1.31s1.44.85,2.16,1.33Zm1.77,2.46h-3.15v-.87h3.15ZM192.07,34l-2.62-2c.85-.45,1.71-1.28,2.55-1.25s1.78.87,2.67,1.35Zm3.68,6.66-.56,7.17h-.61a15.14,15.14,0,0,1,.09-4.14C195,42.72,193.71,41,195.75,40.67Zm-8.83-24.85v-4l4,.88-.88-4h4l-.88,4,4-.92v4.06L193.24,15l.83,3.91H190l.91-3.92Zm.89,9a4.19,4.19,0,0,1,4.36-4.08,4.28,4.28,0,0,1,4.19,4.3A4.32,4.32,0,0,1,192,29.09,4.15,4.15,0,0,1,187.81,24.8Zm1.07,23.37-.71-10.94C189.83,38.83,190.22,46.38,188.88,48.17Zm-1.79,3.42,2.31,1.95a53.11,53.11,0,0,0,2.22-6.66c.23-1.11-.15-2,1-1.57.26,1.2.42,2,.61,2.86.42,1.79.85,3.58,1.28,5.38l2.31-1.95.67.36L196,56.4h0c-2.88,3.44-4.29,3.5-7.95.33L186.46,52Zm.9,5.11,1.1,2.53-.52.58-4.41-3.24h0L183,54l.53-.6ZM181.11,30.8c.53.56,1.12.89,1.18,1.29.91,6.73,1.74,13.47,2.67,20.76C183.29,51.45,180.55,34.18,181.11,30.8Zm.72,19.25-.52.2-2.08-2.21L181,45.43ZM180.05,37.8l.53,3.85C179.52,40.61,177.84,39.67,180.05,37.8ZM178.53,31l.65.56c.22,2,1.47,4.28-1.64,6.06-.5-1.58-1.27-3.06-1.29-4.55C176.24,32.43,177.72,31.73,178.53,31Zm-3.84,10.87c-2.77-2.58-2.76-3.85,0-6.72C177.16,38.6,177.15,39.28,174.69,41.91Zm-.86-9.45.41.48-2.68,3.94L170.37,34Zm-4.67,3.07c2,2.33,1.14,4.28-.39,6.19C166.39,39.41,166.47,38,169.16,35.53Zm0,10.18c2.83,2.42,2.87,2.54,1.5,4.9C167.88,48.52,167.79,48.25,169.11,45.71Zm2.4,8c.79.92,2.95.89,1.6,3C171.8,56.13,170.15,55.86,171.51,53.7Zm2,6,.48-.38,3.46,1.82.23-.36-2.1-1.51a7.58,7.58,0,0,1,7,2l-7,2ZM164.26,81.6c4.36-3.34,8.7-6.7,12.95-10.18,1.16-.95,2.05-1.23,3.38-.09-5.61,6.83-13.41,10.09-21.15,13.45C161.05,83.72,162.74,82.76,164.26,81.6Zm-6.53,5,2.89-1.2c7.94-3.32,15.55-7.15,21.51-13.6,1.95-2.11,1.95-2.11,5.33-1C179,81.32,167.37,85,155.39,88.18l-.26-.5ZM149,66.9c1.37,1.34,1.78,2.56.31,4C148.1,69.7,147.48,68.5,149,66.9ZM146.91,74c-1.62-1.36-.75-2.5.41-3.79C148.82,71.76,148.63,73,146.91,74Zm-1.53-3c-2-1.31-1.32-2.71-.17-4.27C147.07,68.22,146.88,69.58,145.38,71ZM143.16,74c-1.59-1.27-1.56-1.55.24-3.36C145.06,71.87,144.49,72.95,143.16,74Zm-.48-9.78c2.1.81,2.18,1.32.58,3.78C141.62,66.93,141.56,66.49,142.68,64.2Zm-6.95,4.17.31,0v6.27l-.83,0Zm-3.16-4.21a2.07,2.07,0,0,1,3,.29l-.12,1-3-.42C132.45,64.73,132.4,64.28,132.57,64.16Zm-5.06,0,1.71,13.43-.75.11-1.9-13.4ZM120.5,81c-.66-1.09-.36-1.64.63-1.62V76.69c-.79.15-1.68.6-2.32.36a2.14,2.14,0,0,1-.85-1.9c.14-.68.94-1.22,1.65-2l-.46-2-1.57.38c-.06-.72-.4-1.6-.11-2.14a48.77,48.77,0,0,1,3-4.43l.55,1.77c.73-.15,1.84-.55,2-.37a12,12,0,0,1,.9,2.61c.83-.07,1.85-1.65,2.43.21.39,1.25.62,2.62-1.28,3l.49,2.41L127,74l.59,4.12-.64.38-2.09-3-1.68.45c.25.47.47,1,.76,1.4a3.43,3.43,0,0,0,.95,1.16c1.05.6,2.18,1.08,3.28,1.61l.08-1.26,2.31,1.11V77.47l1.66,1,1.32-5.17.39-.09,1.76,5.24,1.67-1.11-.16,2.55,2.55-1.23c-.21,2.15-1.53,3.5-2.92,3.62-2.81.24-6,1.19-8.18-1.8a10.73,10.73,0,0,0-1.86-.35,6.5,6.5,0,0,0-1.54.34l4.42,2-.18.62L126.92,83c.72,1.91,2.12,2.39,4.07,2.21a31.05,31.05,0,0,1,5.83,0c1.95.19,3.31-.31,4-2.21l-2.59.14-.18-.51,3.87-2,.28.41-.75,1.79,3.13-.93L144,83.28l1.57-.68c.08.14.22.26.2.35a39.21,39.21,0,0,1-1,4.06c-.17.49-.82,1.16-1.26,1.16-6.46.08-12.92.06-19.39,0a1.35,1.35,0,0,1-1.08-.83,16.15,16.15,0,0,0,2-.17,1.57,1.57,0,0,0,.08-.9,11.19,11.19,0,0,0-1.72-.42C122.51,84.42,121.52,82.72,120.5,81Zm2.91,9.85c10.24,0,20.48.05,30.72.08,5.52,0,11,0,17.1,0a22.13,22.13,0,0,1-9.63,5.45c-9.26,2.6-18.52.92-27.78.17-2.75-.22-5.5-.51-8.25-.77l-.53.54c.6,1.31,1.15,2.66,1.81,3.94,1.9,3.7,1.91,3.68,5.39,1.73,4.73-2.66,10-2.93,15.2-3.07,4.72-.13,9.46.24,14.19.36,1.94,0,3.89,0,5.83,0-1.45,2.87-7.33,4.2-17.67,2.63l5.94,5.63c1.43,2.29,2.91,4.54,4.27,6.87a10.86,10.86,0,0,1,1.14,3.35c-5.59-5.65-11.46-10.8-18.91-13.83,5.67,4.9,10.45,10.43,13.51,17.35-7.06-3.91-13.75-8.25-18.67-14.87l-.74.61,6,8.75c-6.19-3-12.3-6.09-15.63-12.53q-2.49-4.82-4.9-9.69C120.78,91.6,121.2,90.89,123.41,90.89Zm12.68,8-3.6,1.12-.51-2.3h3.94Zm-6.5,3.81a.91.91,0,0,1-.86-.26c-.85-1.76-1.64-3.56-2.45-5.34l.94-.52c.93,1.76,1.88,3.52,2.77,5.31C130.07,102.09,129.81,102.62,129.59,102.72Zm-17.76,22.12a11,11,0,0,1-13.56.3,11.86,11.86,0,0,1-2.74-3.68c4.88,2.89,9.6,1.93,14.31,0a32.23,32.23,0,0,0,3.39-1.62c5.11-2.8,10.48-2.82,16-1.31-1.7.27-3.42.51-5.11.82A27.67,27.67,0,0,0,111.83,124.84Zm6.89,5.8c-1.44-2.56-1.19-4.29.62-6,2.45-2.25,7.67-3.67,11.76-2.93C125.76,123.47,120.33,124.35,118.72,130.64ZM138,122.37c-1.46-1.29-2.85-2.67-4.34-3.92a27.07,27.07,0,0,0-22.21-6.15c-2.29.34-4.43,1.75-7,2.83a9.42,9.42,0,0,1-2.47-9.77c1.17-4,3.68-6.82,7.93-7.76.61-.14,1.23-.23,1.85-.31,3-.4,5.16,0,7.11,3.06a64.78,64.78,0,0,0,23.19,21.54,5.09,5.09,0,0,1,1.78,1.78A6.12,6.12,0,0,1,138,122.37Zm20.75,18.7c-2.7-7.9-7.32-14.29-14.55-18.71-9.16-5.6-17.52-12.14-23.74-21.06-1-1.48-1.9-3.07-2.8-4.63-.61-1.06-.83-2.2.43-2.9s2.17.22,2.77,1.33c.5.92,1.06,1.81,1.48,2.76,3.73,8.46,10,14.46,18.09,18.67a50.32,50.32,0,0,1,15,11.88c4.17,4.81,5.84,10.33,4.71,17.26C159.58,143.72,159.24,142.38,158.79,141.07ZM144.2,165.61c8.4,1.26,13.42-2.64,15.78-10.52-.06,5.95.89,4.74-4.75,11.41l4.54-3.58c.71,3.08-1.88,5.94-6.39,7.12C148.68,171.28,145.38,169.76,144.2,165.61Zm-72-51.13.62.05c3,7.68,8.52,13.45,14.27,19,1.23,1.2,1.81,2.25,1.23,4a19.09,19.09,0,0,0-.39,3.72L77.87,132l-.3.19c1.52,2.19,3,4.41,4.57,6.56.95,1.28,2.06,2.45,3.1,3.66a36.22,36.22,0,0,1,3.63,4.26,38,38,0,0,1,2.31,5.39c-.62-.36-1.08-.58-1.49-.87-5.53-3.9-11-7.93-15.19-13.29-4.48-5.71-5.4-12.38-4.13-19.37C70.64,117.14,71.59,115.84,72.22,114.48Zm17.16,45.69c-2.37,2.71-2.89,2.93-5.81,1.56-3.71-1.74-7.42-3.51-11-5.56a19.17,19.17,0,0,1-9.47-13.81c-.41-2.26.24-3.07,2.51-2.78a24.36,24.36,0,0,1,11.82,4.29q9.54,7.1,19,14.31c.87.66,1.61,1.5,2.76,2.58a28.53,28.53,0,0,1-10.65-4.61c-3.78-2.64-8-4.67-12-7l-.44.67Zm2.75,14.75a14.08,14.08,0,0,1-2.4-.14q-11-2.6-21.88-5.28a16.6,16.6,0,0,1-9.76-7.06,3.47,3.47,0,0,1,1.56-5.52,12.49,12.49,0,0,1,9.51,0c-1.61.14-3.23.22-4.83.44a14.11,14.11,0,0,0-3,.74c-2,.73-2.44,2-1.57,4,1.38,3.08,4.77,5.08,9,5.1-1.62-.78-2.94-1.33-4.19-2-1.87-1-3.93-2.4-3.45-4.7s3-2.11,4.91-2.26c3.84-.3,7.55-.1,11,2.18,2.23,1.47,4.89,2.31,7.38,3.38,2.19.94,2.2.92,1.9,3.78l-11.44-3.8C80.63,167.24,87.49,169,92.13,174.92Zm-9.34,6.45c1.61.31,2.48,1.05,2.45,3.06-7,.86-13.82,1.18-20.58-.48a11.23,11.23,0,0,1-4.74-2.86c-2.29-2.19-1.92-4.91.66-6.75a10.79,10.79,0,0,1,8.66-2c6.06,1.2,12.13,2.34,18.2,3.52a7.88,7.88,0,0,1,1.23.48c-1.34,1.85-2.78,3-5.22,2.82-3.71-.22-7.44-.06-11.21-.06C75.77,179.84,79.27,180.68,82.8,181.36Zm8.27,9.73a4.29,4.29,0,0,1,1.41.52c-.87,2.71-2.75,3.65-5.32,4-5.09.71-10.12,1.86-15.22,2.5a9.25,9.25,0,0,1-8.18-2.8c-1.64-1.76-1.58-3.15-.06-5,2.28-2.78,5.52-3.4,8.81-3.64,3.74-.27,7.5-.28,11.26-.32,2.82,0,2.83,0,4.2,3l-9.31,1.73C82.79,191.06,86.93,191.05,91.07,191.09ZM72.79,208.38a24.56,24.56,0,0,0,4.88-.13v-.68c-1.35-.11-2.72-.12-4.06-.34-2.39-.39-2.89-1.57-1.65-3.67,1.72-2.9,3.9-4.81,7.61-5,2.95-.12,5.86-1.08,8.79-1.66.66-.13,1.33-.24,2-.37.54,1.85,0,2.88-1.73,3.46a79.88,79.88,0,0,0-9.29,3.72c2.94-.58,5.91-1,8.8-1.79,1.85-.49,2.92-.07,3.6,1.82A43.71,43.71,0,0,1,75,210.61a6.41,6.41,0,0,1-2.07-.12c-3-.53-4.79-2.08-4.71-4.14.13-3.36,2.71-6.36,5.42-6.58a33.17,33.17,0,0,0-3,4.63C69.7,206.46,70.56,208,72.79,208.38ZM21.45,109.94a19,19,0,0,1,.31-11.71,26.12,26.12,0,0,1,1.47-2.91c14.88,14,28.29,29.12,45.45,40-.45-.48-.88-1-1.36-1.44-1.82-1.73-3.56-3.55-5.49-5.14a87,87,0,0,1-21.09-25.37c-1.57-2.86-3.52-5.52-5.22-8.31-5.12-8.37-5-17.13-1.86-26.09a6.52,6.52,0,0,1,.79-1.46c2-2.91,3.58-2.82,5.3.17,6.09,10.54,12,21.17,18.42,31.54,3.24,5.26,7.25,10,11,15a2.43,2.43,0,0,1,.39,2.92,30.07,30.07,0,0,0-1.3,5.28c-4.87-4.18-8.66-9.07-12.43-14s-7.34-9.8-11.26-14.62c.27.62.5,1.26.81,1.86A119.9,119.9,0,0,0,68,126.77a3.57,3.57,0,0,1,1,1.72c.76,4,1.59,7.88,4.13,10.7-3.36-.3-6.85-.57-10.33-1a5,5,0,0,1-2-1Q50.1,129.94,39.4,122.66a3.7,3.7,0,0,0-2-.77c2.29,1.92,4.52,3.92,6.87,5.75,5.06,3.93,10.12,7.87,15.33,11.58,1.9,1.35,2.25,2.92,2.11,5.12-.62-.34-1.12-.57-1.57-.85C51.73,138.16,43.22,133,35,127.41,28.62,123.12,23.66,117.51,21.45,109.94Zm-6,17.6c-.88-3-.28-3.62,2.82-3.39a31.69,31.69,0,0,1,14.4,4.56c10,6.16,19.94,12.47,29.67,19.08,2.18,1.48,3.38,4.42,5,6.68L67,155,34.72,139.55l-.34.66L58.3,155.15a2.78,2.78,0,0,1-.17.55c-1.66,2.52-3.62,2.14-6.15,1.12-7.89-3.16-15.94-6-23-10.83A33.24,33.24,0,0,1,15.41,127.54Zm8.7,35.37c-4.08-2-8.06-4.17-11.13-7.61a20.66,20.66,0,0,1-2.88-4.07c-1.17-2.24-.32-3.69,2.2-3.83,7.3-.38,14.53.25,21.33,3.05,7.13,2.94,14.15,6.18,21.07,9.59,1.26.62,1.81,2.7,2.92,4.48l-26.95-8-.39,1.13L64,170.82c-3,2-6,2.15-9.47,1.34C44.2,169.72,33.76,167.65,24.11,162.9Zm6.63,21.74c-7.41-.57-13.1-4.68-18.07-9.9a7.61,7.61,0,0,1-.93-1.38c-.9-1.5-.52-2.58,1.21-2.9a66.81,66.81,0,0,1,6.81-1c9.56-.75,18.85,1.15,28.12,3.11l9.67,2.06-.91,4.19L31.4,176.93l-.1.45c3.94,1,7.85,2.1,11.83,2.87,4.78.92,9.67,1.3,14.4,2.37,3.09.7,6,2.19,9,3.33l-.12.64a15,15,0,0,1-1.9.12C53.25,186.05,42,185.51,30.74,184.64ZM25.95,203c-4.71-.5-7.85-3.56-10.6-7.1-1-1.32-.75-2.28.7-3.22a25.15,25.15,0,0,1,13.14-4.27c11.26-.23,22.53-.07,34-.07-1.3,2.26-2.24,4.09-5.37,4.33-7,.54-13.9,1.72-20.85,2.64l.06.74H55.18a9.48,9.48,0,0,0,1.25-.09c3.32-.45,6.48-.39,8.71,2.83a5.63,5.63,0,0,1-1.12.38c-9.92,1.35-19.83,2.77-29.77,4A37.31,37.31,0,0,1,25.95,203Zm-5.64,13.5C23.13,210,27.84,206,35.11,205c10.6-1.48,21.16-3.26,31.75-4.9.67-.1,1.36-.13,2.1-.2a6.13,6.13,0,0,1-4.61,4.53c-5.74,1.84-11.33,4.13-17,6.24l.21.62,18.84-5.71c.72,2,.3,3.12-1.59,3.93-8.88,3.8-17.61,8-26.58,11.51C31.71,223.61,25.32,221.7,20.31,216.51Zm59.14,9.33q-9.64,10.85-19.1,21.87a8.39,8.39,0,0,1-9,2.83c-1.62-.4-3.23-.83-4.85-1.24-1.48-4.86-.64-9,3.68-12.32,9.44-7.14,18.81-14.37,28.21-21.55a4.61,4.61,0,0,1,.82-.38,4.46,4.46,0,0,1-1.48,4.67c-5.73,5.06-11.32,10.28-17,15.44l.3.4,18.34-13.06C80.65,223.65,80.58,224.56,79.45,225.83Zm.09-13.16c-8.9,6.46-17.73,13-26.74,19.31a22.41,22.41,0,0,1-13.64,4.47c-4.55-.14-6.36-3.08-4.4-7.22,2-4.29,5.59-7.15,9.74-9.09,7.24-3.38,14.61-6.5,22-9.56,1-.4,2.34.18,3.53.31l0,.81L51.58,224.26l.18.34c1.43-.71,2.9-1.35,4.28-2.15q7.31-4.25,14.55-8.6a10,10,0,0,1,5-1.79c1.76-.06,3.49-.72,5.49-.78A16.72,16.72,0,0,1,79.54,212.68Zm1.34,5.1c0-3.64,1.26-6.43,4.56-8.26,2.36-1.31,4.56-2.93,6.9-4.28a7.32,7.32,0,0,1,2.38-.44l.19.83-6,7.33.24.24c2.08-1.68,4.26-3.25,6.2-5.08,1.73-1.64,3.65-2,6.3-1.66a13.69,13.69,0,0,1-1.06,2.57c-2.23,3.27-4.61,6.44-6.81,9.73a9.08,9.08,0,0,1-7,4.24C81.1,223.59,80.91,223.46,80.88,217.77Zm10.88,16.7q-6.33,10.81-12.36,21.79a7,7,0,0,1-5,3.7c-5.78,1.34-5.68,1.33-8.29-3.85-1.67-3.32-1.45-6.05,1-9C72.63,240.8,78,234.34,83,227.7c2-2.69,4.47-3.64,7.92-3.73l-13,20.41.72.51L91.58,229C92.62,230.91,92.9,232.52,91.76,234.48Zm1.3-6.4a6.57,6.57,0,0,1,.87-6.82c2.79-3.79,5.3-7.79,8-11.84,2.4,2.23,2.64,3.27,1.51,5.82a43,43,0,0,0-2.54,6.76,45.3,45.3,0,0,0,3.26-4.79c1.31-2.53,3.37-2.76,6.08-2.45-1.31,2.61-2.53,5.08-3.78,7.53-1,1.92-2.08,3.78-3,5.74a5.44,5.44,0,0,1-5.43,3.42C94.31,231.5,94.36,231.53,93.06,228.08Zm12.37,11.5c-2,6.93-3.81,13.94-5.57,20.94a5.37,5.37,0,0,1-3.9,4.16c-1.58.5-3.09,1.23-4.68,1.7a2,2,0,0,1-1.72-.37c-1.47-1.66-2.84-3.42-4.18-5.19a4.16,4.16,0,0,1-.27-4.72c3.76-7.29,7.61-14.53,11.3-21.86,1.07-2.12,3.05-.66,4.3-1.76l.5.36-4.76,16.83.36.22,6.78-15.32C105.44,235.94,106.1,237.27,105.42,239.58Zm.7-4.65a6.64,6.64,0,0,1-.7-7.21c1.68-3.43,3.49-6.8,5.25-10.19,1.37-2.65,1.37-2.65,4.64-3.66l-2,11.49.26.1,4.09-10.11c1.57.76,2.34,1.49,2,3.29-.87,4.57-1.48,9.19-2.2,13.79-.42,2.67-2.17,3.91-4.58,4.83C109.81,238.42,107.92,237.58,106.12,234.93ZM119,259.83c-1.46,1.05-2.91,2.12-4.48,3.28a38.72,38.72,0,0,1-5.38-4.25,6.52,6.52,0,0,1-1.8-4.42c.55-4.8,1.58-9.54,2.5-14.29a1.79,1.79,0,0,1,1-1.15c1.43-.45,2.92-.72,4.56-1.11v13.81l.22.06,3.91-13.24a3.47,3.47,0,0,1,2.57,3.87c-.15,3.95,0,7.91,0,11.86A6.58,6.58,0,0,1,119,259.83Zm8.33-18.93c-1.92-1-3.75-1.84-5.43-2.9-2.54-1.6-3-4.14-2.38-6.81a97.91,97.91,0,0,1,2.73-10.48c.41-1.2,1.86-2.05,2.84-3.06l.78.36.61,10.63h.33l.27-1.55h.22v10.37c-3.61-1.18-5.34-2.82-6.07-6.06-.37,3.86.36,5,3.5,6.44C125.9,238.39,127.68,238.55,127.29,240.91Zm-1.37-25.54c-1.29.57-2.36,2.76-4.1,1.14-2.23-2.09-6.05-3.44-4.09-7.8a32.27,32.27,0,0,0,1.5-4.11,7,7,0,0,0,0-1.91l-.78-.13c-.93,2.35-1.87,4.71-2.79,7.06-1.24,3.16-1.92,3.58-5.28,3.5-1.37,0-2.75.15-4,.23-1-1.8-1.92-3.43-2.91-5a3.15,3.15,0,0,1,.55-4c1.18-1.36,2.68-2.43,3.9-3.75a6.42,6.42,0,0,0,.83-2.09,6.15,6.15,0,0,0-2.1.7c-1.65,1.39-3.21,2.89-4.73,4.42a3.8,3.8,0,0,1-4.38,1.06,43.78,43.78,0,0,1-5.35-2.79c-.33-.19-.46-.95-.44-1.43,0-.83.28-1.64.38-2.47.64-5.08.83-5.3,6-6.47,1.42-.33,2.86-.6,4.26-1,.43-.13.74-.66,1.11-1-.51-.22-1.06-.68-1.53-.6-1.44.23-2.83.72-4.26,1-5.56,1.1-9.17-1-11-6.33a2.34,2.34,0,0,1,.13-1.88c3.83-4.87,4.94-6.51,12.17-4.76a38.59,38.59,0,0,1,3.72,1.34c.61.22,1.24.39,1.85.59l.4-.74a14.87,14.87,0,0,0-1.81-1.09c-3.81-1.64-7.75-3-11.44-4.91-3-1.51-3.68-4.55-3.72-7.67a2.15,2.15,0,0,1,.84-1.52c2.69-1.9,5.63-2.64,8.58-.8s5.82,4,8.74,6.06a19.73,19.73,0,0,0,2,1.07l.46-.54a14.28,14.28,0,0,0-1.29-1.84c-4-4.17-8.05-8.3-12.06-12.47-6.13-6.38-6.53-13.92-4.35-21.95,8.08,8,16.16,15.88,24.18,23.86,2.5,2.49,4.42,5.32,4.82,9,.54,4.95-.82,9-4.71,12.28-3.19,2.65-4.8,6-3.65,10.17a10.61,10.61,0,0,0,2.28,4.11,20.94,20.94,0,0,0,13.59,6.92c0,3.92.16,7.75-.05,11.55a3.49,3.49,0,0,1-5.72,2.24,19.92,19.92,0,0,1-2.49-3.29c-.84,2.13.12,2.84,2.85,5.23,2,1.78,3.48-1,5.71-1.11C127.13,214.08,126.67,215,125.93,215.37Zm-10.57,91.69c-2.41,1.57-6.29,1.1-9.56-1.27,5.94-1.64,5.91-6.4,5.94-11.07,0-3.2-.32-6.4-.23-9.59.22-7.46,4.12-11.71,11.49-12.73,1.48-.2,3-.22,5.13-.38a39.33,39.33,0,0,1-2.49,3.19,49.59,49.59,0,0,1-4.7,4.44c-4.34,3.4-5.36,7.85-4.62,13a20.36,20.36,0,0,1,.25,6.16c-.73,4.3-1.64,5.23-5.31,7,2.1.69,2.61.25,6.23-5.31C118.17,303.26,117.35,305.77,115.36,307.06Zm20.47-23.44c-1,1.36-2.3,2.51-2.77,3.93-.27.83.56,2.27,1.27,3.12,1.59,1.91,2.91.51,4.24-.89.55,1.44.36,2.64-.8,3.21-1.47.73-3.22.9-4.67,1.65-2.1,1.09-2.59-1-4-1.48l1,1.92-.49.44-2.54-2.65,1,2.94-.51.25-1.79-2-.31.18,1,1.95a3.24,3.24,0,0,1-4-.56c-3-2.89-3.21-5.31-.88-8.76,2.59-3.84,5.07-7.75,7.71-11.81l5.79,6.77c-4.08,0-6.6,1.65-8.15,4.84C129.61,284.64,131.93,281.57,135.83,283.62Zm3.62.15.52.45a50.65,50.65,0,0,1-2.23,4.76c-.39.67-1.44,1.51-2,1.38a2.82,2.82,0,0,1-1.57-1.95,2.71,2.71,0,0,1,.74-2.31A34.4,34.4,0,0,1,139.45,283.77ZM122.1,314.42c-1.26-5.5-2.59-10.94-3.71-16.42a40,40,0,0,1-1-8.64c.09-4.63,2.84-7.74,7.06-9.7-1.26,2.32-2.37,4.75-3.81,6.95-2.38,3.62-2.26,4.91.1,8.65a62.44,62.44,0,0,1,5.21,10.11C127.56,309.47,125.89,312.71,122.1,314.42Zm7.05-1.14-1.77-6.69,5,.47C132.31,309.55,131.64,311.73,129.16,313.28Zm-1.78-8.95a8,8,0,0,1-1-1.8c-1.56-3.77-1-4.9,2.91-5.95l11.16-3c-1.2,2.34-.9,4.17.89,5.78,1.35,1.22,2.62,1,3.86-.22.61,2.29-4.79,5.35-7.53,4.27-.77-.3-1.39-1-2.39-1.24l1.21,1.33-.33.55-3-1.7,1.4,2.11-.31.36-2.3-1.49-.24.27,1.19,1.44C130.42,306.52,128.91,306.32,127.37,304.33Zm14-9.78a44.93,44.93,0,0,1,4.85-3.44l.55.37c-.6,2-1.08,4-1.86,5.83-.32.76-1.35,1.78-2,1.72a3.08,3.08,0,0,1-1.94-1.88A2.93,2.93,0,0,1,141.37,294.55Zm-6.55,23.94-1.68-12.16.61-.07c1.53,4.93,1.53,4.93,5.52,7.46Zm11.68-2.17-.76-.17-2-4.55,3.37-2.37.76.5Zm-2.35-9.17,1,1.95c-.24.06-.58.25-.72.15a7.38,7.38,0,0,0-2.1-1.26l1.44,2.2-.39.36-2.2-1.46-.25.23,1.51,1.88a2.48,2.48,0,0,1-3.51,1,9,9,0,0,1-2.77-2.11c-2-2.45-1.58-3.84,1.4-4.92,3.57-1.29,7.16-2.53,10.72-3.79.54,2.51,1.78,3.46,5.42,4,.16,2.13-.78,2.71-4.27,3C147.5,308.48,145.62,308.6,144.14,307.15Zm6.06-6.63c1.27-1.44,2.74-2.71,4.13-4l.69.13c-.27,2.08-.44,4.18-.87,6.23-.11.54-1.15,1.37-1.55,1.26a6.19,6.19,0,0,1-2.72-1.61C149.59,302.19,149.81,301,150.21,300.52Zm-1.81,8.94c1.86-.49,3.48-.58,5.16.85,2.09,1.78,4.45,3.23,6.73,4.85C156,318,149.43,314.38,148.4,309.46Zm16,15.76c2.37-4.64,6.3-5.67,12.81-2.41a27.59,27.59,0,0,1-3.45,1C170.59,324.37,167.42,324.78,164.38,325.21ZM153.31,383A11,11,0,0,1,136,376.71a5.82,5.82,0,0,1-.09-2.11c2.38,3.33,3.71,7.83,9.06,7.46-3.13-1.21-5.86-2.82-7-6.25a14.2,14.2,0,0,1-.1-9.59c-4.23.05-7.58,4.34-9.49,12.4-3.06-3.6-6.42-6.65-6.36-11.46.06-4.25,2.49-7.3,6.25-9.14a12.58,12.58,0,0,1,3.63-.6c.7-.1,1.41-.18,2.11-.27l.11-.81a21.85,21.85,0,0,0-2.47-.55,8,8,0,0,1-7.26-9.89c.56-2.59,2.72-4.72,5.88-5.71,0,1,0,1.9,0,2.83-.05,4.85,3.88,7.42,8.23,5.23a30.16,30.16,0,0,0,6.14-3.93c5.88-5.09,12.67-8.51,19.81-11.36a37.18,37.18,0,0,0,13.93-9.33c.7-.76,2.48-.53,3.77-.76l.51,1.14c-2.42,2.65-4.62,5.56-7.32,7.89-4.15,3.59-8.67,6.75-13,10.14a28.38,28.38,0,0,0-4.81,4.27,14.53,14.53,0,0,0-2.68,5.32c-1.09,4.3.85,7,5.18,7.79,1.13.2,2.29.25,3.76.41-1.81,2.76-3.65,5-6.94,5.44s-5.43-1.66-7.8-3.71a8.9,8.9,0,0,0-.95,8.68c.9,2.5,3,3.35,5.5,3.31,2.76,0,5.44.19,7.73,2,1.31,1,2.38,2.17,2,4-.14.11-.26.28-.35.26C159.09,379,156.29,380.83,153.31,383Zm23.32-49.31c-6.38,7.92-13.06,15.11-17.11,24.28-2.53-1.09-3.27-2.39-2.8-4.64a17,17,0,0,1,7.08-10.89c4-2.78,7.91-5.64,11.87-8.46A4.86,4.86,0,0,1,176.63,333.71Zm-20.78,34.64-.29,3.57c-2.16.17-4.1-.06-5.43-1.69s-.85-3.36-.33-4.8Zm16.46,23.13c-7.33-.67-12.33-4.53-13.37-10.76l5.19,1.48c2.3-4.21.67-8-4.09-9.47-.85-.27-2.23-1-2.22-1.49,0-1.66-.45-3.58,1.81-4.62,4.32-2,6.07-5,5.48-8.92l-3.91.66a53.43,53.43,0,0,1,3.17-5.61c2.73-3.69,5.73-7.17,8.45-10.87,3.91-5.31,7.67-10.74,11.49-16.12.46-.65.88-1.32,1.32-2l.52.2c-.43,1.91-.71,3.86-1.3,5.71C181.61,339.8,178.45,350,175,360a31.18,31.18,0,0,0-.93,18c.94,3.85,3.41,5.89,7.34,6.34,1,.11,1.9.28,2.88.42C182.76,389.09,177.54,392,172.31,391.48Zm24.55-61.17.65-.13c.25,1,.46,2,.76,2.93q4.16,13.11,8.37,26.21a46.48,46.48,0,0,1,2.35,15.4,7.41,7.41,0,0,1-5.14,7.16C204.24,364.27,200.27,347.32,196.85,330.3Zm4.35,52.82-.94-15.06-.67,0v14.28l-3.73-1.43c.81,2,1.55,3.55,2,5.16a4.82,4.82,0,0,1,.07,3.05c-1.2,2.59-3.18,5.36-5.86,5.44s-4.44-2.75-5.87-5.13a3,3,0,0,1-.07-3.47,38.34,38.34,0,0,0,2.11-5.2l-3.74,1.68V368.23l-.67,0-1,14.37-.66.08a11.9,11.9,0,0,1-.37-2.77c.76-7.46,1.31-15,2.48-22.37,1.55-9.89,3.59-19.7,5.44-29.54.15-.82.45-1.62.68-2.43l.68,0a21,21,0,0,1,.27,2.42q0,29.46,0,58.91a20.23,20.23,0,0,0,.27,2.38l.72,0c.06-.77.17-1.54.17-2.3q0-29.46,0-58.91a6.28,6.28,0,0,1,.56-2.47C196.64,330.56,203.56,379.4,201.2,383.13Zm-20.84-1.19a7.21,7.21,0,0,1-5.29-7.58A72.2,72.2,0,0,1,177.31,360c3.06-10.49,6.67-20.83,10.15-31.52C184.31,346.33,179.62,363.73,180.36,381.94Zm19.72,8.57a15.92,15.92,0,0,1-6.76,7.69,2.65,2.65,0,0,1-2.11.21,15.56,15.56,0,0,1-7.42-8.4,1.13,1.13,0,0,1,0-.61c0-.11.16-.21.38-.48a24.38,24.38,0,0,0,2.42,3.5c5.38,5.47,5.52,5.54,10.69.12a26.78,26.78,0,0,0,2.45-3.54l.54.09A5,5,0,0,1,200.08,390.51Zm14.5.56c-6.76,1.46-12.16-.73-14.9-6.27,1-.15,1.92-.3,2.84-.42,4-.53,6.66-2.51,7.6-6.61a28.81,28.81,0,0,0-.89-17.24A241.1,241.1,0,0,1,198.31,326c-.14-.62-.21-1.25-.32-1.87l.72-.34c6.09,12.71,17.37,21.73,24.3,34.66l-3.92-.7a7.06,7.06,0,0,0,4.2,8.23c2.95,1.33,3.14,3.47,3.08,6.15-2.71,1-6.09,1.18-7,4.5-.49,1.8,0,3.86,0,5.83l5.55-1.68C224.72,385.6,220.31,389.83,214.58,391.07ZM206.76,333c4.89,3.46,10,6.92,14.9,10.59,3.27,2.43,4.94,5.95,5.65,9.9.41,2.31-.25,3.4-2.7,4.52C220.29,348.45,213.18,340.84,206.76,333Zm12.75-.08c7,2.84,13.74,6.07,19.54,11a48,48,0,0,0,5.9,3.93c2.17,1.36,4.5,1.64,6.68.18s2.53-3.85,2.22-6.33c-.06-.47-.15-.94-.3-1.89,3.34,1.42,6,3.14,6.26,6.56.54,6.81-3.49,9.6-10.2,9.65l.38,1a11.89,11.89,0,0,0,2.3.41c6.6-.12,11.73,7,9.11,13.06-1.23,2.87-3.36,5.35-5.43,8-1.37-5.78-3.45-10.72-9.86-12.65a14.3,14.3,0,0,1,0,10c-1.18,3.39-3.76,5.17-7.14,6.08,3.6.68,4.28.11,9.32-7.14a14.32,14.32,0,0,1-.36,2.58,11.07,11.07,0,0,1-16.55,6.17,2.86,2.86,0,0,1-.35-.23c-2.93-2.42-5.87-4.82-10.24-3.18l-.41-.63c.52-1.08.78-2.49,1.63-3.18a16.88,16.88,0,0,1,4.55-2.35,9,9,0,0,1,2.89-.33c6.1-.21,8.86-4.47,6.7-10.29-.55-1.47-1.06-1.92-2.45-.66-4.78,4.35-10.14,3.21-13.15-2.94.88-.06,1.66-.1,2.45-.16,5.38-.43,7.55-3.5,6.13-8.73a12.57,12.57,0,0,0-4.68-6.73c-5.61-4.35-11.27-8.64-16.69-13.22-2.33-2-4.12-4.59-6.26-7,2.49-1.18,4-.9,5.54.89C210.41,328.57,214.82,331,219.51,332.91Zm8.7,35.37,6-2.77c1.63,4-.4,6.58-5.66,6.39Zm-11.69-46.35c1.4,1,2.7,2.14,4,3.22l-.63.22-12.61-2.26v-.54a54.27,54.27,0,0,1,6.47-1.89C214.61,320.54,215.69,321.36,216.51,321.94Zm-5.5-4.39a47.07,47.07,0,0,1-26.43,3.39c-9.64-1.43-17.88-6.23-26-11.37a4.78,4.78,0,0,1-2.24-3.16,5,5,0,0,1-.36-2.08c.09-3.12,1.26-6.43.86-9.57-.9.11-1.79.19-2.75.37-2.82.51-6.75-1.31-6.33-4.82,0-.11,0-.22,0-.33l-.31-.21c-.33-.23-.71-.44-1-.69a4.22,4.22,0,0,1-3.71-1.14l-1.15,1.22-.34-.34c.41-.39.8-.79,1.19-1.19a5.67,5.67,0,0,1-1.25-4.42c-.08-.17-.24-.42-.39-.67l-.32-.1a7.33,7.33,0,0,1-4.37-3,19.86,19.86,0,0,0-1.7-2.36c-.89-1-1.89-1.73-2.7-2.77l-.29-.4a4.86,4.86,0,0,1-2-3.33,5.3,5.3,0,0,1-.23-1.59V180.19a4.08,4.08,0,0,1-.29-2.33,5.82,5.82,0,0,1,0-.8,4.76,4.76,0,0,1,4.82-5.31h115.5a4.74,4.74,0,0,1,4.82,5.13,5.37,5.37,0,0,1,.18,1.37V272.5a4.51,4.51,0,0,1-1.76,3.75,5,5,0,0,1-.62,1.18,4.59,4.59,0,0,1-4.68,3.69l-.36,0,0,0a9.14,9.14,0,0,0-2.11,1.94,5.16,5.16,0,0,1-1.23,2.91,4.67,4.67,0,0,1-2.17,3l-.14.14,0,0a5,5,0,0,1-2.28.52c-.16,0-.31,0-.46,0l-.47.16a5.25,5.25,0,0,1-.63,2.72,5.07,5.07,0,0,1-6.54,2c-.21,0-.42.1-.64.14l-.16,0h0c-1.38,1.56,0,5.87,0,7.69,0,2.91-.43,5.66-2.57,7.78C223.56,313.78,216.24,316.74,211,317.54Zm39.65-31.75c1.59.91,1.63,2.26.7,3.71-.77,1.2-1.77,1.5-2.59.2-1.08-1.72-1.95-3.59-2.9-5.39l.55-.51C247.84,284.45,249.31,285,250.66,285.79ZM243.39,299a2.26,2.26,0,0,1-1.92-1c-.93-2-1.6-4.21-2.36-6.33l.66-.44a53.78,53.78,0,0,1,4.64,3.08A2.86,2.86,0,0,1,243.39,299ZM235,303.66c-1.19.74-2.57,1-3-.62a54.42,54.42,0,0,1-1.06-6.36l.73-.13c1.44,1.38,3,2.7,4.3,4.16S236.08,303,235,303.66Zm-9.13,11.62c2.86-2.06,5.56-4.17,8.45-6,.78-.49,2.12-.07,3.49-.07C235.69,315,230.59,317.47,225.83,315.29Zm14.43.94-.69.1L238,309.86l.68-.57,3.63,2.16Zm3.23-4.92,1.57-2-.21-.28-2.17,1.49-.49-.29,1.53-2.47-2.84,1.54-.31-.51,1.44-1.56c-3,1.85-6.1,1.44-9.15.25-.5-.2-.69-1.18-1.14-2,4.27-.65,5.42-1.54,5.82-4.16,4,1.49,8,3,12,4.46,1.38.5,1.55,1.38,1.19,2.63C249.79,311.83,246,313.47,243.49,311.31Zm7.83,6.46-.6.24-4.05-4.31c3.28-1.66,5.46-3.8,5.3-7.58l.82.22Zm5.53-4.41c-2.51-1.52-3.15-3.75-3.21-6.29l4.93-.44Zm1.09-8.38c-1.17,1.78-3,1-5,.21l1.36-1.59-.23-.33-2.28,1.55-.4-.33,1.49-2.12-3.16,1.73-.53-.8,1.78-1-.23-.71c-3.17,3.17-6.2,1.38-9.16.09-.69-.3-1-1.44-1.32-2.46,1.87,1.08,3.44,1.38,4.88-.4s1.63-3.16.24-5.42c4.66,1.35,9.23,2.64,13.75,4.05.52.16,1.25,1.23,1.12,1.64A22.37,22.37,0,0,1,257.94,305Zm8.66-3.1c-.49,2.09-1.17,4.15-1.54,6.27s-.47,4.26-.68,6.38c-3.41-1-5.81-4.5-4.63-7.78a56.09,56.09,0,0,1,5.34-11.18c2.31-3.61,2.61-5.43.24-9-1.43-2.17-2.54-4.55-4-7.29,5.57,2.43,8.21,7.64,7.24,13.88C268.07,296.08,267.28,299,266.6,301.87Zm7.89-16.82c.12,2.29-.05,4.59-.11,6.89,0,.9-.14,1.81-.14,2.71,0,4.68-.06,9.42,6.1,11.19-3.26,1.9-6.21,3-9.4,1.34-2.66-1.42-3-4-2.49-6.85,1.33,2.79,2.59,5.65,6.38,5.66-3.78-1.17-5.13-4.18-5.6-7.59a19.2,19.2,0,0,1,.39-5.56c.87-5.35-.24-9.83-4.75-13.36-2.51-2-4.59-4.49-7.12-7C267,270.71,274,276.22,274.48,285.06Zm-17.85-9.95c3.11,4.74,6.22,9.29,9.1,14,1.4,2.27-.35,4.08-1.54,5.84a3.46,3.46,0,0,1-4.64,1.38l.86-2-.28-.21L258.45,296l-.54-.15.75-2.41-.21-.19-1.75,2.24-.61-.14.76-2.53c-3,4-6,1-8.82,0-.58-.21-.74-1.62-1.21-2.79a19,19,0,0,0,3.64,1.42c.47.07,1.2-.64,1.59-1.16,1.79-2.43,1.42-3.52-2.15-6.43,4.19-2.46,6.42.83,9.09,3.19-.62-3-2.68-4.39-7.86-5.34Zm-.21-62c2.13.34,3.54,3.26,5.74,1.24,1.52-1.4,3.63-2.75,2.72-5.56a29.69,29.69,0,0,1-1.67,3c-1,1.35-2.34,2.11-4,1.49a3.75,3.75,0,0,1-2.71-3.78c0-3.48,0-7,0-10.58,1-.22,2-.39,2.9-.62a20.84,20.84,0,0,0,11-6.77,9.12,9.12,0,0,0,0-12.19,14.74,14.74,0,0,0-2.19-2.24c-6.52-5-4.93-15.65-.14-20.13,4.43-4.14,8.77-8.37,13.06-12.64,3.94-3.92,7.76-7.95,11.77-12.07,1.52,5.75,2.32,11.58-.82,17.16a36.2,36.2,0,0,1-4.87,6.48c-3.42,3.76-7,7.33-10.57,11-.5.52-.93,1.11-1.39,1.67l.39.65a10.43,10.43,0,0,0,1.91-.83c2.92-2,5.77-4.13,8.7-6.12a6.93,6.93,0,0,1,2.69-1c2.43-.4,6.35,1.14,6.91,2.58.82,2.14-1,7-3.6,8.35-3.76,1.9-7.78,3.28-11.67,4.92a13.69,13.69,0,0,0-1.7,1l.54.8c.63-.23,1.25-.49,1.89-.7a46.35,46.35,0,0,1,5.36-1.64c4.85-.92,8.55,1,10.63,5.38a2.32,2.32,0,0,1,0,1.57c-1.84,5.43-5.55,7.56-11.19,6.41-1.22-.25-2.41-.69-3.64-.9a9.31,9.31,0,0,0-2.06.08l-.18.75a14.64,14.64,0,0,0,2.2,1c2.08.56,4.29.77,6.23,1.62a5.78,5.78,0,0,1,2.74,3,20.08,20.08,0,0,1,.78,5.34,1.66,1.66,0,0,1-.68,1.28,36.89,36.89,0,0,1-4.8,2.53,4.2,4.2,0,0,1-4.82-.92c-1.39-1.37-2.72-2.81-4.21-4.05a9.66,9.66,0,0,0-2.57-1.1,11,11,0,0,0,1.23,2.35c1,1.1,2.13,2,3.17,3a3.56,3.56,0,0,1,.41,5.17,14.93,14.93,0,0,0-1.26,2.15c-.33.68-.56,1.41-.76,1.92-2.12,0-4.12.06-6.11,0a3.43,3.43,0,0,1-3.21-2.55c-1-2.65-2.07-5.27-3.1-7.9l-.8,0a7.22,7.22,0,0,0,0,2c.48,1.6,1,3.17,1.68,4.72a3.74,3.74,0,0,1-1.1,4.52c-1,.94-2.11,1.82-3.21,2.67-.34.26-1,.58-1.23.44a31.75,31.75,0,0,1-3.93-2.36C256.6,214.42,256.61,213.71,256.42,213.09Zm3.86,26c-1.13.52-2.27,1-3.68,1.63-.13-2.35,1.64-2.46,2.84-3,2.91-1.31,3.71-2.6,3.25-6-.45,3.46-3.25,4.42-6,5.87V226l.14,0,.2,2,.4,0,.66-10c2.1.47,3.53,1.16,3.94,3.44.57,3.14,1.46,6.23,2.22,9.33Q265.71,236.61,260.28,239.11Zm16.45,14.18a6.65,6.65,0,0,1-3.17,6.78c-1.37.93-2.67,2-4.13,3a12.22,12.22,0,0,0-1.48-1.07c-5.52-2.79-6.93-7.51-6.36-13.25.25-2.49,0-5,.42-7.49.16-1.08,1.24-2,1.9-3l.57.23,3.84,13.12.22,0V238.31c3.49-.48,5.53.63,6.27,3.92C275.64,245.87,276.21,249.58,276.73,253.29Zm-6-16.15a5.76,5.76,0,0,1-4.31-4.86c-.74-4.74-1.57-9.47-2.14-14.23-.1-.86.85-1.84,1.32-2.76l.79.29,4,9.94.29-.1-2-11.47a5.1,5.1,0,0,1,4.49,3.32c1.6,3.47,3.47,6.82,5.22,10.22a6.29,6.29,0,0,1-.8,7.7C274.86,238.4,274.85,238.42,270.74,237.13Zm27.72,18.07a5.58,5.58,0,0,1-.57,6.73c-3.83,4.94-3.74,4.88-9.59,2.83a6.26,6.26,0,0,1-4.36-4.79c-1.83-7.13-3.7-14.26-5.69-21.35-.58-2.09,1-2.74,2-4.31l6.87,15.55.41-.14-4.77-16.89c2.85-.32,4.46.58,5.68,3.12C291.59,242.47,295,248.83,298.46,255.2ZM290,230.74a1.33,1.33,0,0,1-.67.68,7.55,7.55,0,0,1-8.93-3.49c-2.23-4.3-4.43-8.63-6.73-13.13,3-.52,4.94.16,6.27,2.64a20.24,20.24,0,0,0,3.66,4.72l-3.13-7c-1.12-2.49-.84-3.6,1.57-5.72l3.61,5.34a41.7,41.7,0,0,0,3.78,5.49C292.62,223.72,291.45,227.18,290,230.74Zm27.42,17.32a6.18,6.18,0,0,1,.83,7.17,45.56,45.56,0,0,1-2.46,4.59,2,2,0,0,1-1.6.81c-1.93-.22-3.84-.59-5.75-1s-2.92-1.7-3.81-3.29c-4-7.22-8.06-14.46-12.28-21.59-1.2-2-1.11-3.7.12-5.86,2.28,2.89,4.36,5.59,6.5,8.23s4.31,5.17,6.46,7.75l.65-.46-13-20.49c3.28.19,5.8.9,7.87,3.62C306.21,234.54,311.82,241.29,317.39,248.06ZM302.8,221.46c-.08,1.46-1,1.91-2.45,1.9-5.11,0-9.06-1.9-11.66-6.56-1.55-2.78-3.62-5.26-5.39-7.92a14.29,14.29,0,0,1-1-2.46c6.19-.94,8.4,4.66,12.93,6.75L288.5,205c1.37,0,2.33-.3,2.9,0a81.45,81.45,0,0,1,8.89,5.8,7.92,7.92,0,0,1,2.49,4.35A24.84,24.84,0,0,1,302.8,221.46Zm34.71,28c-2.18.44-4.4,1-6.66,1.29A7.62,7.62,0,0,1,323.8,248c-6.54-7.59-13.16-15.11-19.65-22.74-.46-.55-.15-1.76-.22-3.19l18.89,13.53.51-.57a17.28,17.28,0,0,1-1.59-1.16c-5.15-4.68-10.23-9.44-15.46-14a4.53,4.53,0,0,1-1.49-5c1.62,1.22,3.11,2.32,4.58,3.44l22,16.86c.39.3.77.6,1.14.91C338.33,240.72,338.72,241.78,337.52,249.44ZM348,227.13a11.69,11.69,0,0,1,1.68,3.33c1,3-.38,5.41-3.46,5.76a14.88,14.88,0,0,1-6.56-.49,45.93,45.93,0,0,1-10.23-5c-8.54-5.89-16.84-12.12-25.23-18.23a4,4,0,0,1-1.23-1.43c3.54,1.25,7.39.64,10.79,2.86,5.35,3.5,11,6.5,16.57,9.69.58.34,1.22.56,1.84.84l.09-.32-18.35-12.46c1.37-1.5,2.66-1.64,4.44-.83,7,3.16,14,6.09,21,9.22A21.6,21.6,0,0,1,348,227.13Zm15.6-10.49c-4.78,4.33-10.29,7.2-16.93,4.71-7.93-3-15.66-6.52-23.46-9.85-1.41-.6-2.7-1.47-4.13-2-1.84-.68-2.24-1.85-1.49-3.92l18.78,5.69.15-.3c-.61-.3-1.2-.64-1.82-.88-4.8-1.85-9.55-3.87-14.43-5.46-2.63-.85-4.66-1.94-5.31-4.88,7.7,1.25,15.44,2.53,23.19,3.77,3.3.53,6.6,1.06,9.92,1.41C355.48,205.72,360.79,209.32,363.56,216.65ZM353,188.29a27.88,27.88,0,0,1,14.65,4.24c2,1.24,2.22,1.85.72,3.79-3.35,4.34-7.61,7.32-13.29,7s-11.64-1-17.43-1.71S326,200,320.26,199.18a11.26,11.26,0,0,1-1.45-.4c2.12-3,5.05-3,8.3-2.89,6.59.25,13.19.07,19.79.07l.05-.51c-4.61-.68-9.21-1.37-13.82-2a36.91,36.91,0,0,0-6.42-.75c-3.13.11-4.75-1.49-5.88-4.23.64,0,1.24-.11,1.83-.11C332.78,188.31,342.88,188.27,353,188.29Zm10.75-18.81c1.87.14,3.75.27,5.6.57,3.88.62,4.42,1.89,1.83,4.78-4.07,4.54-9,8-15,9.29A82,82,0,0,1,345,185.19c-8.4.55-16.81,1-25.21,1.51-.73,0-1.46,0-2.19,0l-.12-.51,1.26-.72c5.4-3.12,11.56-3.16,17.45-4.32,5.51-1.08,11-2.41,16.45-3.63l-.06-.63-25.2,2-1-4.14c3.16-.7,6.3-1.46,9.46-2.09C345,170.83,354.23,168.77,363.72,169.49Zm-26.77.9c-2.11.45-4.23.88-6.3,1.46-3.7,1-7.33,1.68-10.8-1.18,5.76-2.15,11.49-4.23,17.17-6.44s11.29-4.55,16.93-6.83l-.32-.95-26.78,7.94a7.35,7.35,0,0,1,4.73-5.64c5.15-2.09,10.1-4.67,15.18-6.93a52.76,52.76,0,0,1,24.41-4.47c3.13.16,4,1.66,2.42,4.37a25.33,25.33,0,0,1-10.16,9.38A98.7,98.7,0,0,1,337,170.38Z"/><path d="M90.93,132.35c0-.07.1-.1,0,0Z"/><path d="M132.37,54.53l-2.28.25V50.06l1.85.11.19-2,3.53.28,0,.78h-3l.33,2.52-2.41-.27-.16,2.48,2.59-.33-.36,2.34,2.62.18-.49-2.45,2.55.2.14-2.43-2.49.23c-.23-2.07,1.57-1.07,2.47-2v5.2l-2-.29.82,3.33c-1-.12-2.38-.72-3.39-.31s-1.53,1.81-2.17,2.66c.17-.66.39-1.63.68-2.59S131.94,55.81,132.37,54.53Z"/><path d="M257.51,82.94c-1.54,2.76-4.18,2.17-6.63,2.19a32.12,32.12,0,0,0-3.73,0c-2,.25-3.46-.33-4.1-2.37l2.6.29.13-.66-4.52-2c.9-1.93,2.07-.38,3.13-.24a23.5,23.5,0,0,0,3.7,2.17c1.33.5,2.89.86,4-.71.29.25.79.76.85.7.85-.65,1.65-1.38,2.45-2.09.56,0,1.12-.09,1.68-.05a14.47,14.47,0,0,1,1.57.26l.06-.06-4.5,2.1.16.55Z"/><path d="M264.37,67c1.92,1.08-.63,2.18.4,3.45l-2.08-1.11,1-2.43Z"/><path d="M349.59,124.75c5.13-6.66,10.59-12.81,10.3-21.52l-.63-.52c-2.32,2.08-4.58,4.22-7,6.21a83.66,83.66,0,0,1-7.58,5.62l15.45-14.93C363.81,105.37,357.38,120.86,349.59,124.75Z"/><path d="M346.77,70l-7.32,12.47-.44-.2a9.5,9.5,0,0,1,.42-1.09c1.95-3.69,3.92-7.36,5.86-11.06,1-1.83,1.74-2,2.93-.18,2.17,3.22,2.51,6.94,2.2,10.63-.68,7.93-3.67,15.08-7.9,21.75-.09.14-.27.23-.69.56,4.32-9.4,8.75-18.47,6.67-29A21.21,21.21,0,0,0,346.77,70Z"/><path d="M34.06,124.34C26,119.4,20.57,106.48,23.61,99.58a9.31,9.31,0,0,1,1.67,1.08c4.6,4.63,9.16,9.29,13.62,14.15L24.26,102.53a27.22,27.22,0,0,0,0,4.38c1,5.28,3.76,9.66,6.94,13.84C32.15,122,33.12,123.14,34.06,124.34Z"/><path d="M45.27,83.69,37.36,70.4c-2,2-2.1,4.51-2.35,6.89-.59,5.49,1,10.62,2.85,15.67,1.12,3,2.47,6,3.57,9a45.3,45.3,0,0,1-7.26-17.28,26,26,0,0,1,0-11.18,4.51,4.51,0,0,1,.47-1.59c.84-1.13,1.8-2.17,2.71-3.24.63.93,1.34,1.82,1.89,2.8,2.18,3.94,4.31,7.91,6.46,11.88Z"/><path d="M286.47,153.65c2.92-4.33,6.09-8.55,4.6-14.59l-4.23,3-.07-.1,5-4.72C294,141.33,292.33,149.66,286.47,153.65Z"/><path d="M288,172.47c1.24-1.15,2.45-1.88,3.05-2.95a6.7,6.7,0,0,0,1.08-4.12c-.36-1.75-2.26-1.45-3.7-1.35-1,.07-1.9.28-2.95.44,1.8-2,5.28-2.61,7.36-1.45,1.5.84,1.6,2.25,1.21,3.63A7.9,7.9,0,0,1,288,172.47Z"/><path d="M281.92,202.13c3.32.31,6.09.41,7.28-2.74,1.12-3-.74-4.69-3.13-6.13,2-.33,3.34.06,3.72,1.68.48,2,1.28,4.82.35,6.23C288.5,203.68,284.84,203.82,281.92,202.13Z"/><path d="M282.14,151.72c-2.55,2.78-5.08,5.58-7.69,8.29-.27.28-1.09,0-1.65,0,.15-.62.11-1.45.5-1.81,1.79-1.64,3.7-3.14,5.58-4.69l2.81-2.29Z"/><path d="M289.92,187.77c6.11-3.26,5.76-5.81-1-10,3-.19,6.68,2.5,6.8,4.91S292.84,187.72,289.92,187.77Z"/><path d="M288.28,183.23c-2.41.29-4.82.61-7.23.82-.32,0-.69-.51-1-.79.28-.33.56-.93.85-.94,2.44-.08,4.89,0,7.34,0Z"/><path d="M270.11,209.48c4.83,2.6,7.67,1.12,8.39-4.59,1.49,2.68-.35,4.58-1.59,6-.75.88-3,.73-4.55.61-.91-.07-1.74-1-2.61-1.55Z"/><path d="M284.3,169.28c-2,1.82-3.74,4.09-6.55,4.75C279,171.16,281.7,170.26,284.3,169.28Z"/><path d="M273.3,205.47c-1.16-1.42-2.36-2.81-3.45-4.28-.19-.25.08-.84.14-1.28.44.12,1.11.09,1.28.37.94,1.56,1.76,3.2,2.62,4.81Z"/><path d="M277.59,192.44l6.14,3.85C281.19,196.65,277.78,194.68,277.59,192.44Z"/><path d="M260.67,208.27c-.18-1.46-.39-2.91-.52-4.38,0-.19.55-.64.64-.59.32.17.75.5.77.79.08,1.36,0,2.72,0,4.08Z"/><path d="M92.2,136.71,97,142l-3.87-2.76c-1.57,3.7-.39,7.3,4.59,14.48C92.52,150.85,90,143.34,92.2,136.71Z"/><path d="M98.93,164.43c-1.86-.17-3.23-.42-4.6-.4-2.42,0-3.47,1.34-2.48,3.53.8,1.76,2.31,3.19,3.32,4.51a7,7,0,0,1-5.39-6.23,2.58,2.58,0,0,1,2-3C94.28,162.06,96.47,162.74,98.93,164.43Z"/><path d="M101.51,202.32c-2.26,1.37-7.22.87-7.95-1.16-.62-1.73,0-4.05.49-6,.41-1.62,1.83-2.37,3.91-2.07-2.35,1.63-4.39,3.39-3.18,6.36S98.77,202.5,101.51,202.32Z"/><path d="M102.26,151.21c2.84,2.35,5.71,4.67,8.48,7.1.36.32.25,1.19.35,1.8-.56,0-1.37.15-1.66-.15-2.61-2.7-5.12-5.49-7.66-8.26Z"/><path d="M93.92,187.78c-3-.06-5.8-2.76-5.6-5.18s3.65-4.94,6.87-4.77c-2.49,1.15-4.89,2.12-5.38,4.76C89.25,185.61,91.84,186.51,93.92,187.78Z"/><path d="M113.85,209.46c-.68,2-4.35,3.1-6.37,2.19-1.27-.57-2.73-4.93-2.36-5.85.9,1.34,1.66,3.41,3.14,4.43C109.91,211.37,112.12,211,113.85,209.46Z"/><path d="M95.69,182.35c2.55,0,5.11,0,7.66,0,.2,0,.6.84.53.9-.35.34-.85.82-1.25.78-2.31-.22-4.61-.57-6.92-.87Z"/><path d="M106.53,174.56c-3.18-1.22-4.88-3.48-7.29-5.23C102,169.49,105.83,172.07,106.53,174.56Z"/><path d="M110,205c.87-1.59,1.69-3.21,2.65-4.74.17-.28.93-.19,1.42-.26,0,.44.13,1-.09,1.3-1.06,1.41-2.22,2.75-3.34,4.12Z"/><path d="M100.61,196.11l5.52-3.59C106.33,194.5,103.58,196.3,100.61,196.11Z"/><path d="M122.35,208.18c0-1.33-.06-2.67,0-4,0-.32.55-.61.85-.91.2.37.61.76.58,1.1-.13,1.31-.41,2.61-.63,3.91Z"/><path d="M213.79,333.13c9.23,3.82,18.4,7.89,24.86,16,5.82,7.34,7.21,15.37,3.54,24.06-1.5,3.55-3.9,4.93-7.67,4.93,0-.11,0-.31,0-.32,8.16-2.91,9.33-11.76,7.56-18.8-1.94-7.72-6.94-13.23-13.53-17.33C223.74,338.71,218.73,336,213.79,333.13Z"/><path d="M226,363.12c4.41.19,7.16-1.81,8.45-6a4.9,4.9,0,0,1-1.79,5.39A5.76,5.76,0,0,1,226,363.12Z"/><path d="M257.58,346.65c1.78,4.29-.61,7.49-5.51,7.35C255.4,352.64,258.17,350.88,257.58,346.65Z"/><path d="M149.43,378a7.09,7.09,0,0,1-7.35-4.42c-3.34-7.22-2.87-14.34,1.07-21.18a34,34,0,0,1,12.77-12.35c4.74-2.75,9.65-5.21,14.49-7.8l.29.5c-2.69,1.58-5.35,3.21-8.06,4.74-5.15,2.92-10.37,5.71-14.39,10.22-5.5,6.16-8.28,13.08-6.37,21.46C142.86,373.51,145.54,376.24,149.43,378Z"/><path d="M135.69,359.29c-2.69,1.63-5.44,2.48-6.8,4.34s-1.4,4.8-2.07,7.5c-.86-2.77-1-5.43.53-7.87C129.09,360.39,132,359.59,135.69,359.29Z"/><path d="M131.87,353.93a5.51,5.51,0,0,1-5.23-2c-1.24-1.63-1.09-3.4-.3-5.25C126.15,350.67,128.27,352.79,131.87,353.93Z"/><path d="M206.8,342.58c5.27,6.47,10.25,13.23,11.81,21.7a28.09,28.09,0,0,1-2.47,16.89,5.73,5.73,0,0,1-5.24,3.64,4.49,4.49,0,0,1,.76-1.13c3.85-3,5.25-7.2,5.65-11.88.59-6.85-1.26-13.09-4.59-19C210.77,349.41,208.78,346,206.8,342.58Z"/><path d="M177.62,342.14c-2.09,3.58-4.16,7.17-6.27,10.74a32.28,32.28,0,0,0-4.59,14c-.55,6.85.5,13.22,6.61,17.72l-.29.51c-.61-.13-1.46-.05-1.8-.43-1.47-1.62-3.33-3.16-4.07-5.1-2.88-7.57-3.23-15.28.67-22.64,2.76-5.2,5.94-10.18,8.93-15.25Z"/><path d="M349.05,146.71c1.85-1.49,3.71-2.92,5.48-4.46a33.78,33.78,0,0,0,8.86-10.94,8.79,8.79,0,0,0,.37-2.52,8.5,8.5,0,0,0-2.56.06c-5.23,1.8-10.43,3.7-15.93,5.68A47.23,47.23,0,0,1,361,127.35c.61-.15,1.21-.3,1.83-.41,2.77-.51,3.56.26,2.67,2.92-2.75,8.16-8.69,13.34-16.2,17C349.27,146.86,349.19,146.78,349.05,146.71Z"/><path d="M35.67,147.34c-7.52-3.6-14-8.3-17-16.51a12.1,12.1,0,0,1-.52-1.58c-.45-2.08.16-2.79,2.23-2.4a44.68,44.68,0,0,1,17.9,7.68,9.37,9.37,0,0,1-.93-.23c-.39-.14-.76-.34-1.16-.48-4.63-1.7-9.25-3.43-13.9-5.07a6.76,6.76,0,0,0-2.18,0,7.13,7.13,0,0,0,.2,2.33c2.18,4.8,5.78,8.47,9.75,11.81C31.86,144.43,33.79,145.86,35.67,147.34Z"/><path d="M344.77,216.85c1.67.32,3.34.66,5,1a11.65,11.65,0,0,0,7.89-1.12c2.18-1.17,2.4-2.09.37-3.6s-4.33-2.75-6.52-4.1c-.41-.25-.83-.47-1.38-.77,3.57,0,9.41,3.39,11,6.31.71,1.31-.14,2-1,2.56-3.6,2.46-7.55,2.57-11.6,1.52a36.7,36.7,0,0,1-3.85-1.45Z"/><path d="M29.77,163.34c-5-1.63-9.82-3.55-13.65-7.25a18.29,18.29,0,0,1-3.08-3.9c-.83-1.43-.19-2.66,1.28-2.71a41.05,41.05,0,0,1,19.35,4c-3.79-.72-7.56-1.49-11.36-2.14a34.51,34.51,0,0,0-5.39-.5,6.36,6.36,0,0,0-2.18.86c.33.65.5,1.52,1,1.9,4.33,3.12,8.73,6.15,13.11,9.2C29.17,163,29.47,163.15,29.77,163.34Z"/><path d="M354.82,163.33l12.07-8.53a2.33,2.33,0,0,0,.62-.56c.58-.87,1.12-1.76,1.67-2.65-1.1-.25-2.24-.84-3.28-.7-5.21.7-10.4,1.6-15.72,2,3.75-1,7.46-2.16,11.25-2.91a45.24,45.24,0,0,1,7.68-.52c2.07,0,2.83,1.17,1.7,2.93a22,22,0,0,1-3.78,4.39C363.44,160,359,161.73,354.82,163.33Z"/><path d="M39.6,216.68c-4.77,3.21-11.25,3.34-15.51.55-1.87-1.22-2-1.95-.52-3.65a16,16,0,0,1,10.09-5.33c-1.5.86-3,1.67-4.49,2.59a29.81,29.81,0,0,0-3.57,2.52c-1.59,1.35-1.36,2.33.47,3.28a13.71,13.71,0,0,0,10.13.83C37.2,217.22,38.2,217,39.6,216.68Z"/><path d="M33.42,201.12c-5.35.58-10.35,0-14.08-4.45-1.13-1.36-1.12-2.4.53-3.33a24.61,24.61,0,0,1,12.77-3.15c-3,1.06-6.12,2.05-9.12,3.23a14.19,14.19,0,0,0-2.77,1.94c.72.89,1.27,2.18,2.2,2.59,2.69,1.18,5.53,2,8.33,3A9.93,9.93,0,0,0,33.42,201.12Z"/><path d="M348.85,201.63c3.42-.79,6.67-1.39,9.82-2.35a12.14,12.14,0,0,0,3.58-2.43c1.34-1.07,1.26-2.13-.39-2.78-3.47-1.36-7-2.65-10.73-4.08a26.16,26.16,0,0,1,13.64,3.76c1.17.72.71,1.66.11,2.5a10.23,10.23,0,0,1-6.54,4.49C355.25,201.29,352.08,201.35,348.85,201.63Z"/><path d="M33.36,183.42c-7.16-.48-13.44-3-18.3-8.5-.93-1.06-1.39-2.18.32-2.73A29.77,29.77,0,0,1,33.12,172c-1.9,0-3.81-.07-5.71,0-2.7.12-5.41.21-8.09.58-2.23.31-2.44,1.18-.95,2.82,3.54,3.88,8.06,6.05,13,7.5C32,183.07,32.7,183.24,33.36,183.42Z"/><path d="M350,183.76c3-1.1,5.8-1.74,8.19-3.07a46.9,46.9,0,0,0,7.49-5.54c1.46-1.25,1.17-2.15-.76-2.45a78.84,78.84,0,0,0-8.29-.72c-2.15-.11-4.3,0-7.11,0,1.75-.38,2.94-.71,4.14-.89a33,33,0,0,1,14.46,1c1.81.55,2.11,1.33.94,2.68C364.17,180.41,357.75,183,350,183.76Z"/><path d="M334,231.07c3,.66,5.56,1.29,8.13,1.76,2.21.4,2.94-.5,1.88-2.52a51.57,51.57,0,0,0-3.52-5.23c2.67.7,6.17,5.43,5.7,8.06-.08.45-1,1-1.63,1.07C340.81,234.57,337.47,233.38,334,231.07Z"/><path d="M44,224.34a55.77,55.77,0,0,0-4,6c-1.13,2.25-.49,3,2,2.53S47,231.7,50,231c-3.45,2.3-6.76,3.45-10.52,3.23-1.55-.09-2-.7-1.66-2.26C38.68,228.59,40.84,226.32,44,224.34Z"/><path d="M324.59,245a43.13,43.13,0,0,0,5.74,1.55c2.91.39,4.31-1.45,3.33-4.27a32.21,32.21,0,0,0-2.24-4.23c2.16,1.31,3.72,2.82,4,5,.14,1.32-.08,3.22-.93,4a5.69,5.69,0,0,1-6.1.71,26,26,0,0,1-4-2.49Z"/><path d="M52.61,238a30.09,30.09,0,0,0-2.33,4.43c-1,2.85.77,4.76,3.69,4.13,1.86-.4,3.64-1.12,5.88-1.84-2.56,2.56-5.05,4.09-8.42,3.26-2.32-.58-3.16-1.81-3-4.22S49.9,239.6,52.61,238Z"/><path d="M69.53,248.59c-.64,2.91-1.42,6,1.6,7.95s5.28-.57,7.73-2.49c-.33,2-1.23,3.25-2.86,3.77-2.14.69-4.62,1.77-6.45,0C67.25,255.64,67.43,251.27,69.53,248.59Z"/><path d="M305.15,254.12c2.41,1.81,4.49,4.4,7.55,2.46s2.51-5.07,1.45-8.35c2.52,2.76,2.45,7.76.12,10a1.65,1.65,0,0,1-.3.27C311.36,259.89,305.85,257.33,305.15,254.12Z"/><path d="M296.32,254.52c1.92,4,.77,7.93-2.3,9.35-2.14,1-7-1.65-8.24-4.74,2.38,1.78,4.56,3.64,7.44,2.7C296.54,260.76,296.31,257.8,296.32,254.52Z"/><path d="M98.23,258.92c-1.1,3.16-6.19,5.92-8.3,5-3-1.31-4.22-5.43-2.46-8.95.21,3,.1,5.92,3.27,6.89C93.62,262.72,95.8,261,98.23,258.92Z"/><path d="M310.11,153.94c1.62-1.9,3.06-3.47,4.35-5.15a15.9,15.9,0,0,0,2-3.38c.68-1.6-.06-2.51-1.76-2.09-2.15.53-4.23,1.31-6.35,2a2.24,2.24,0,0,1-1,.16,21.58,21.58,0,0,1,9.31-3.79c1.41-.27,1.82.56,1.57,1.9A16,16,0,0,1,310.11,153.94Z"/><path d="M76.49,145.51c-2.23-.69-4.44-1.46-6.7-2-.69-.18-1.91-.08-2.19.34a2.52,2.52,0,0,0,.17,2.28c1.49,2.16,3.17,4.19,4.78,6.28l.8,1.06c-3.44-1.21-7.74-7.06-7.79-10.41,0-1.31.83-1.63,1.78-1.34,3.14,1,6.24,2.1,9.36,3.17Z"/><path d="M311.09,121.06l-2.79,2.54-.25-.22,3.53-5.62c2.83,5.86,0,16.09-5.92,21.74C308.71,133.92,312,128.38,311.09,121.06Z"/><path d="M72.24,117.7l3.86,6-.22.21-2.93-2.7c-1,7.19,2.13,12.69,5.58,18.33C72.68,134.64,69.66,124.58,72.24,117.7Z"/><path d="M68.63,173.76a50.42,50.42,0,0,0-5,1.42c-2.06.81-2.48,2.3-.91,3.87a41.88,41.88,0,0,0,4.92,3.73A8.38,8.38,0,0,1,60.75,179a2.36,2.36,0,0,1,.82-3.58A10.2,10.2,0,0,1,68.63,173.76Z"/><path d="M316.2,182.79a40.71,40.71,0,0,0,4.55-3.15c2.23-2,1.94-3.54-.84-4.61A38.47,38.47,0,0,0,315,173.8a10.68,10.68,0,0,1,7,1.33c2,1.11,2.28,2.8.79,4.49A8.78,8.78,0,0,1,316.2,182.79Z"/><path d="M263.32,254.08a32.94,32.94,0,0,0,2.92,3.84c2,2,3.83,1.84,5.7-.24a12.55,12.55,0,0,0,1.61-2.41,27.52,27.52,0,0,0,1.09-2.59c.62,3-2.23,7.92-4.82,8.68a1.31,1.31,0,0,1-.4.06C267,261.35,263.17,256.67,263.32,254.08Z"/><path d="M109.11,252.7a37.73,37.73,0,0,0,2.77,4.79c1.91,2.41,4,2.44,6.12.15a36.85,36.85,0,0,0,2.75-3.9c-.12,3-3.16,7-5.88,7.61a1.64,1.64,0,0,1-1-.12C111.26,260.06,108.86,255.85,109.11,252.7Z"/><path d="M312.73,196.05a36.32,36.32,0,0,0,3.81-1.55c2-1.1,2.12-2.45.16-3.74a36,36,0,0,0-4.42-2.16l.19-.5a40.05,40.05,0,0,1,5.67,2.34c2.1,1.25,2,3.49-.16,4.59a33.92,33.92,0,0,1-5.14,1.7Z"/><path d="M71.7,196.91A38.33,38.33,0,0,1,65.94,195c-2.13-1.1-2.24-3.19-.21-4.46a37.28,37.28,0,0,1,5.81-2.45l.23.59a23.55,23.55,0,0,0-3.89,1.72A4.07,4.07,0,0,0,66,192.83c-.05.61,1.2,1.53,2.05,2a27.32,27.32,0,0,0,3.86,1.35Z"/><path d="M268.08,233.09a26.14,26.14,0,0,0,3.24,1.24c3.72.92,4.82.16,5.48-3.64.1-.6.17-1.21.27-1.93,1.11,2.28,0,6.19-2,7.19C273.6,236.68,268.85,234.66,268.08,233.09Z"/><path d="M116.36,232.24c-.94,2.23-5.42,4.5-7.27,3.79-1.34-.51-3.11-4-2.86-5.75a8.16,8.16,0,0,1,.81-2.32c-.37,2.6,0,5.49,2.18,6.52S114.28,234.28,116.36,232.24Z"/><path d="M299.43,212.12c2.24,2,3.21,6.19,2,8.73a1.68,1.68,0,0,1-.82.81c-2.33.85-6-.36-7.72-2.62,1.48.44,2.81,1,4.18,1.23,2.55.51,4.11-.87,3.75-3.46A31,31,0,0,0,299.43,212.12Z"/><path d="M84.76,211.76c-.62,1.68-1.17,2.87-1.5,4.12-.85,3.28.76,4.94,4.13,4.28,1.13-.22,2.23-.65,3.41-1-1.28,2-5.4,3.38-7.54,2.48a1.73,1.73,0,0,1-.78-.87C81.38,218.28,82.31,214.16,84.76,211.76Z"/><path d="M287.65,220.56a6.43,6.43,0,0,1,1.5,9,1.27,1.27,0,0,1-.8.5c-2.45.11-4.87.07-6.77-2.54,2.5.86,5,2.57,6.86.22S288.87,223,287.65,220.56Z"/><path d="M96.29,220.44c-1.27,2.83-2.7,5.34-.62,7.51,1.9,2,4.24.69,6.57-.54-1.44,2.19-5.22,3.53-7,2.65a2.32,2.32,0,0,1-.82-1.12C92.92,225.56,93.34,223.14,96.29,220.44Z"/><path d="M211.85,50.4,208,48.71l1.67-3.9,1.06,1.5,1.21-.2Z"/><path d="M211.76,35.76l3.39,1.55L214,38.89l.45,2-.51.29-1.32-1.58-1.43.15.63-4.09Z"/><path d="M209,44l-2.44-1.64.7-3.07,2.69.92Z"/><path d="M125.31,80.45,127,83c-1-.28-2-.61-3-.82-.17,0-.44.43-.9.9l-1.05-3.18,1.42-.74Z"/><path d="M121.08,76.75,120.95,74l1.51-.78.75,2.66Z"/><path d="M258.61,80.5l1.76-1.25,2.07.37L261,81.88l-3.36,1,1.05-2.47Z"/><path d="M123.86,69l.42,2.42-1.45.92-.59-2.18L123.9,69Z"/><path d="M118.93,68.05l1.6-.59.75,2-1.71.82Z"/><path d="M262.84,76.74l-2.13-.83.83-2.66,1.51.85Z"/><path d="M259.94,69.1l1.78,1.08-.55,2c-2-.4-1.23-1.92-1.18-3.18Z"/><path d="M188.3,64c-1,.87-1.64,1.7-2.08,1.63a2.76,2.76,0,0,1-1.58-1.41c-.11-.19.71-1.27,1.14-1.29C186.42,62.87,187.09,63.41,188.3,64Z"/><path d="M200,64.1c-1,.77-1.59,1.59-2,1.5-.61-.12-1.08-.91-1.61-1.41.49-.47.93-1.23,1.48-1.31S198.95,63.47,200,64.1Z"/></g><g id="Слой_3" data-name="Слой 3"><path d="M217.9,280.94a17.24,17.24,0,0,1-9.26-3.17l-.08-.06c-2.41-1.93-3.51-3.55-3.36-5a2.18,2.18,0,0,1,1-1.61c5.14-4.71,10.19-5.31,12.42-5.32.06-2.22.8-7.25,5.64-12.27a2.18,2.18,0,0,1,1.63-.92c1.42-.12,3,1,4.89,3.49l.06.08c2.7,4.45,5.46,11.19-1.19,18.93l.06.06-2,2-.08-.09C224.08,279.93,220.83,280.94,217.9,280.94Zm-8.13-4.82c4.29,2.75,10.13,5.09,17.24-1.17l.48-.47c6.44-6.95,4.26-12.84,1.62-17.2-2-2.67-3-2.69-3.11-2.66l-.11,0-.16.22c-5.76,5.92-5.15,11.65-5.12,11.89l.15,1.3-1.29-.19c-.24,0-5.95-.79-12,4.82l-.23.16s0,.11,0,.14S207.28,274.12,209.77,276.12Z"/><path d="M205.92,270.23a13.12,13.12,0,0,1-2.94-.34l.45-1.95c4,.91,7.78-.3,11.64-3.7l.48-.47c6.44-6.95,4.26-12.84,1.62-17.2-1.93-2.53-2.9-2.67-3.08-2.67a.18.18,0,0,0-.17.07l-.14.18c-5.75,5.92-5.15,11.65-5.12,11.89l.15,1.29-1.29-.18a11.58,11.58,0,0,0-4.07.36l-.48-1.94a15.34,15.34,0,0,1,3.66-.46h0c.06-2.22.8-7.26,5.63-12.27a2.18,2.18,0,0,1,1.63-.92c1.42-.12,3,1,4.89,3.49l.06.08c2.7,4.44,5.46,11.19-1.19,18.93l.06.06-2,2-.08-.09A15.36,15.36,0,0,1,205.92,270.23Z"/><path d="M203.95,255.54,202.7,254q.45-.35.9-.75l.48-.46c5.95-6.42,4.41-11.73,2.73-15.18l1.8-.88c2.9,5.94,2.11,11.41-2.4,16.67l.06.06-2,2-.08-.09Z"/><path d="M179.32,247.43a20.9,20.9,0,0,1-5.6-2.65l-.08-.06c-2.41-1.93-3.51-3.55-3.36-5a2.18,2.18,0,0,1,1-1.61,23.16,23.16,0,0,1,2.6-2.07l1.12,1.65a21.25,21.25,0,0,0-2.45,2l-.23.16s0,.11,0,.14.09,1.15,2.59,3.15a18.91,18.91,0,0,0,5,2.38Z"/><path d="M171.67,236.32a17.29,17.29,0,0,1-9.26-3.17l-.08-.06c-2.41-1.93-3.51-3.55-3.36-5a2.18,2.18,0,0,1,1-1.61c5.15-4.71,10.19-5.31,12.42-5.32.06-2.22.8-7.26,5.64-12.28a2.16,2.16,0,0,1,1.27-.86,3.18,3.18,0,0,1,2.55.66l-1.13,1.65c-.55-.38-.94-.44-1-.31l-.14.18c-5.75,5.91-5.15,11.65-5.12,11.89l.15,1.29-1.29-.19c-.24,0-5.95-.79-12,4.82l-.23.16s0,.11,0,.14.09,1.15,2.58,3.15c2.52,1.62,5.93,3.37,10,2.66l.35,2A12.59,12.59,0,0,1,171.67,236.32Z"/><path d="M160.68,224.67a17.24,17.24,0,0,1-9.26-3.17l-.08-.06c-2.41-1.93-3.51-3.55-3.36-5a2.18,2.18,0,0,1,1-1.61c5.15-4.71,10.19-5.31,12.42-5.32.06-2.22.8-7.26,5.64-12.27a2.18,2.18,0,0,1,1.63-.92c1.42-.11,3,1,4.89,3.49l.06.08c2.7,4.44,5.46,11.18-1.18,18.92l.06.06-2,2-.08-.09C166.86,223.66,163.6,224.67,160.68,224.67Zm-8.13-4.82c4.29,2.76,10.13,5.09,17.24-1.17l.48-.47c6.44-6.95,4.26-12.84,1.62-17.2-2-2.67-3-2.68-3.11-2.66l-.11,0-.16.22c-5.75,5.91-5.15,11.65-5.12,11.89l.15,1.29-1.29-.19c-.24,0-5.95-.79-12,4.82l-.23.16s0,.11,0,.14S150.06,217.84,152.55,219.85Z"/><polygon points="236.85 285.15 227.35 276.08 228.04 275.36 237.55 284.43 236.85 285.15"/><rect x="140.92" y="193.95" width="1" height="24.51" transform="translate(-106.16 171.24) rotate(-47.52)"/><rect x="151.84" y="189.31" width="1" height="24.51" transform="translate(-99.2 177.79) rotate(-47.52)"/><rect x="157.5" y="177.66" width="1" height="24.51" transform="translate(-88.77 178.19) rotate(-47.52)"/><rect x="145.88" y="191.45" width="1" height="24.51" transform="translate(-102.71 174.09) rotate(-47.52)"/><rect x="153.76" y="182.84" width="1" height="24.51" transform="translate(-93.8 177.1) rotate(-47.52)"/><path d="M164.9,280.42c-2.92,0-6.18-1-9.67-3.86l-.06.07-2-1.95.08-.08c-6.65-7.74-3.89-14.48-1.19-18.93l.06-.08c1.86-2.46,3.46-3.61,4.89-3.49a2.18,2.18,0,0,1,1.63.92c4.83,5,5.57,10,5.64,12.27,2.22,0,7.27.61,12.42,5.32a2.18,2.18,0,0,1,1,1.61c.15,1.42-1,3-3.36,5l-.08.06A17.25,17.25,0,0,1,164.9,280.42Zm-9.3-6.15.19.16c7.11,6.26,12.94,3.93,17.24,1.17,2.49-2,2.59-3,2.59-3.15a.21.21,0,0,0-.07-.17l-.18-.13c-6.07-5.61-11.78-4.85-12-4.82l-1.29.19.15-1.29c0-.24.63-6-5.12-11.89l-.14-.19a.2.2,0,0,0-.16-.06c-.18,0-1.15.13-3.08,2.67-2.64,4.36-4.83,10.26,1.62,17.2Z"/><path d="M176.88,269.7a15.36,15.36,0,0,1-9.72-3.86l-.06.07-2.06-2,.08-.08c-6.62-7.73-3.87-14.46-1.17-18.9l.06-.08c1.86-2.46,3.45-3.6,4.89-3.49a2.18,2.18,0,0,1,1.63.92c4.83,5,5.57,10,5.64,12.27h0a15.32,15.32,0,0,1,3.65.46l-.48,1.94a11.52,11.52,0,0,0-4.07-.36l-1.29.18.15-1.29c0-.24.63-6-5.12-11.89l-.16-.22s-.09,0-.14,0-1.15.13-3.08,2.67c-2.64,4.36-4.83,10.26,1.62,17.2l.48.46c3.86,3.4,7.67,4.61,11.64,3.7l.45,1.95A13.11,13.11,0,0,1,176.88,269.7Z"/><path d="M178.86,255l-.23-.18-.06.07-2.06-2,.09-.08c-4.52-5.26-5.3-10.73-2.4-16.68l1.8.88c-1.68,3.44-3.22,8.76,2.73,15.18l.48.46c.3.27.6.52.9.75Z"/><path d="M203.48,246.9l-.54-1.93a19,19,0,0,0,5-2.38c2.49-2,2.59-3,2.58-3.15a.21.21,0,0,0-.07-.17l-.18-.13a21.25,21.25,0,0,0-2.45-2l1.12-1.65a23.16,23.16,0,0,1,2.6,2.07,2.18,2.18,0,0,1,1,1.61c.15,1.42-1,3-3.36,5l-.08.06A21,21,0,0,1,203.48,246.9Z"/><path d="M211.13,235.8a12.58,12.58,0,0,1-2.19-.19l.35-2c4,.72,7.46-1,10-2.66,2.49-2,2.59-3,2.59-3.15a.21.21,0,0,0-.07-.17l-.18-.13c-6.07-5.61-11.78-4.85-12-4.82l-1.29.19.15-1.3c0-.24.64-6-5.12-11.89l-.16-.22c-.07-.09-.47,0-1,.35L201,208.2a3.18,3.18,0,0,1,2.55-.66,2.16,2.16,0,0,1,1.27.86c4.85,5,5.58,10.06,5.64,12.28,2.22,0,7.27.61,12.42,5.32a2.18,2.18,0,0,1,1,1.61c.15,1.42-1,3-3.36,5l-.08.06A17.3,17.3,0,0,1,211.13,235.8Z"/><path d="M222.12,224.14c-2.93,0-6.19-1-9.69-3.87l-.06.06-2-2,.09-.08c-6.63-7.73-3.87-14.47-1.17-18.91l.06-.08c1.86-2.46,3.45-3.61,4.89-3.49a2.18,2.18,0,0,1,1.63.92c4.83,5,5.57,10,5.64,12.27,2.22,0,7.27.61,12.42,5.32a2.18,2.18,0,0,1,1,1.61c.15,1.42-1,3-3.36,5l-.08.06A17.24,17.24,0,0,1,222.12,224.14Zm-9.3-6.15.19.15c7.11,6.26,12.94,3.93,17.24,1.17,2.49-2,2.59-3,2.59-3.15a.21.21,0,0,0-.07-.17l-.18-.13c-6.07-5.61-11.78-4.85-12-4.82l-1.29.19.15-1.29c0-.24.63-6-5.12-11.89l-.14-.19a.18.18,0,0,0-.16-.06c-.18,0-1.15.13-3.08,2.67-2.64,4.36-4.83,10.26,1.62,17.2Z"/><rect x="143.78" y="279.23" width="13.14" height="1" transform="translate(-151.6 181.34) rotate(-43.69)"/><rect x="229.12" y="205.18" width="24.51" height="1" transform="translate(-75.54 217.15) rotate(-42.51)"/><rect x="218.2" y="200.54" width="24.51" height="1" transform="translate(-75.27 208.55) rotate(-42.51)"/><rect x="212.54" y="188.89" width="24.51" height="1" transform="translate(-68.89 201.66) rotate(-42.51)"/><rect x="224.17" y="202.68" width="24.51" height="1" transform="translate(-75.15 213.15) rotate(-42.51)"/><rect x="216.28" y="194.07" width="24.51" height="1" transform="translate(-71.41 205.55) rotate(-42.51)"/></g><g id="Слой_4" data-name="Слой 4"><path d="M169.49,289.13a1.78,1.78,0,0,1-1.15-.4,1.92,1.92,0,0,1-.6-1.53c0-.76,0-2.78,1.93-2.78h2v-1.74c0-.57.51-1.64,2.42-1.64h1.42v-1.37a2.58,2.58,0,0,1,.64-1.76,2.14,2.14,0,0,1,1.61-.63h1.33V237.67h-3.75a2.29,2.29,0,0,1-1.58-.65,2.55,2.55,0,0,1-.69-1.89v-6.21a1.78,1.78,0,0,1,.47-1.21,1.9,1.9,0,0,1,1.43-.54h3.69a.94.94,0,0,0,.66-.19.92.92,0,0,0,.23-.7V211.47a2.56,2.56,0,0,1,.62-1.73A2.36,2.36,0,0,1,182,209c2,0,9.62.1,9.62.1v1S184,210,182,210a1.41,1.41,0,0,0-1.07.37,1.55,1.55,0,0,0-.35,1v14.84a1.86,1.86,0,0,1-.56,1.45,1.89,1.89,0,0,1-1.38.44H175a1,1,0,0,0-.71.23.79.79,0,0,0-.19.5v6.23a1.6,1.6,0,0,0,.39,1.18,1.39,1.39,0,0,0,.87.36h4.76v41.61h-2.33a1.17,1.17,0,0,0-.89.31,1.63,1.63,0,0,0-.36,1.05V282h-2.42c-1.36,0-1.42.63-1.42.64v2.74h-3c-.41,0-.93,0-.93,1.78a1,1,0,0,0,.25.78.87.87,0,0,0,.6.16h22v1H169.49Z"/><path d="M213.33,289.12l-.24,0H191.25v-1h21.91a.94.94,0,0,0,.68-.16,1,1,0,0,0,.25-.77c0-1.78-.51-1.78-.93-1.78h-3v-2.74c0-.05-.08-.64-1.42-.64h-2.42v-2.37a1.64,1.64,0,0,0-.36-1.07,1.17,1.17,0,0,0-.89-.31h-2.33V236.67h4.75c.21,0,1.27-.08,1.27-1.54v-6.21a.8.8,0,0,0-.2-.52,1,1,0,0,0-.7-.22h-3.69a1.74,1.74,0,0,1-1.89-1.89V211.47a1.57,1.57,0,0,0-.36-1.05,1.42,1.42,0,0,0-1.06-.37c-2,0-9.6.1-9.6.1v-1s7.58-.1,9.62-.1a2.36,2.36,0,0,1,1.8.69,2.57,2.57,0,0,1,.62,1.76v14.78a.75.75,0,0,0,.85.89h3.73a1.9,1.9,0,0,1,1.43.54,1.78,1.78,0,0,1,.47,1.23v6.19a2.55,2.55,0,0,1-.69,1.89,2.36,2.36,0,0,1-1.58.65h-3.74v39.61h1.33a2.14,2.14,0,0,1,1.61.63,2.59,2.59,0,0,1,.63,1.78V281h1.42c1.91,0,2.42,1.07,2.42,1.64v1.74h2c1.93,0,1.93,2,1.93,2.78a1.92,1.92,0,0,1-.6,1.53A1.78,1.78,0,0,1,213.33,289.12Z"/><rect x="175.17" y="234.79" width="32.42" height="1"/><rect x="180.86" y="237.5" width="1" height="40.29"/><rect x="183.25" y="237.6" width="1" height="40.29"/><rect x="185.72" y="237.6" width="1" height="40.29"/><rect x="197.38" y="237.5" width="1" height="40.29"/><rect x="199.84" y="237.5" width="1" height="40.29"/><rect x="179.73" y="277.27" width="23.51" height="1"/><rect x="176.22" y="281.04" width="30.54" height="1"/><rect x="172.6" y="284.41" width="37.87" height="1"/><rect x="178.94" y="227.17" width="24.27" height="1"/><rect x="179.86" y="212.52" width="22.92" height="1"/><rect x="183.25" y="213.41" width="1" height="14.12"/><rect x="185.58" y="213.02" width="1" height="14.12"/><rect x="199.54" y="213.23" width="1" height="14.12"/><rect x="197.21" y="213.23" width="1" height="14.12"/></g><g id="Слой_5" data-name="Слой 5"><path d="M187.1,207c-.5,0-1.29-.55-2.41-2.75-1-1.94-1.82-3.81-1.11-5.39a4.29,4.29,0,0,1,3.12-2.15c.75-.25,2-.53,2.4.28l0,.08a1.28,1.28,0,0,0,.95.91v-2.72h1v3.82l-.52,0a2.34,2.34,0,0,1-2.37-1.58,3.33,3.33,0,0,0-1.2.2h0a3.44,3.44,0,0,0-2.46,1.59c-.52,1.17.22,2.8,1.09,4.51s1.44,2.14,1.55,2.19h3.52v1H187.1Z"/><polygon points="187.67 207.07 185.01 200.12 185.96 199.76 186.8 201.96 186.94 197 189.79 203.51 188.86 203.91 187.83 201.56 187.67 207.07"/><path d="M190.8,196.11a2.56,2.56,0,1,1,2.56-2.56A2.56,2.56,0,0,1,190.8,196.11Zm0-4.1a1.54,1.54,0,1,0,1.54,1.54A1.54,1.54,0,0,0,190.8,192Z"/><path d="M194,207h-3.56v-1H194c.11-.05.63-.4,1.55-2.19s1.61-3.34,1.09-4.51a3.44,3.44,0,0,0-2.46-1.59h0a3.38,3.38,0,0,0-1.2-.2,2.34,2.34,0,0,1-2.37,1.58l-.52,0v-3.82h1V198a1.28,1.28,0,0,0,.95-.91l0-.08c.36-.81,1.65-.53,2.4-.28a4.29,4.29,0,0,1,3.12,2.15c.71,1.58-.12,3.45-1.11,5.39C195.29,206.48,194.5,207,194,207Z"/><polygon points="193.43 207.07 193.27 201.56 192.24 203.91 191.31 203.51 194.16 197 194.3 201.96 195.14 199.76 196.09 200.12 193.43 207.07"/></g></svg>