<svg id="Слой_1" data-name="Слой 1" xmlns="http://www.w3.org/2000/svg" viewBox="0 0 38.4 48"><title>icon_Монтажная область 1</title><path d="M31.2,20h-20a.8.8,0,0,0,0,1.6h20a.8.8,0,1,0,0-1.6Zm0,0"/><path d="M11.2,15.2h8a.8.8,0,1,0,0-1.6h-8a.8.8,0,1,0,0,1.6Zm0,0"/><path d="M31.2,26.4h-20a.8.8,0,0,0,0,1.6h20a.8.8,0,0,0,0-1.6Zm0,0"/><path d="M31.2,32.8h-20a.8.8,0,1,0,0,1.6h20a.8.8,0,1,0,0-1.6Zm0,0"/><path d="M31.2,39.2h-20a.8.8,0,0,0,0,1.6h20a.8.8,0,0,0,0-1.6Zm0,0"/><path d="M34.4,11.67V0H0V44H4v4H38.4V15.67ZM27.2,6.73l8.47,8.47H27.2ZM1.6,42.4V1.6H32.8v8.47L26.73,4H4V42.4Zm4,4V5.6h20V16.8H36.8V46.4Zm0,0"/></svg>